<?xml version="1.0" standalone="yes"?>
<svg xmlns="http://www.w3.org/2000/svg" width="556" height="13">
<path style="fill:#fdfefe; stroke:none;" d="M0 0L2 5L2 6L2 7L0 13L278 13L269.621 0.603395L251 0L208 0L0 0z"/>
<path style="fill:#a5a5a5; stroke:none;" d="M271 0L272 1L271 0z"/>
<path style="fill:#c3c3c3; stroke:none;" d="M272 0L273 1L272 0z"/>
<path style="fill:#fdfefe; stroke:none;" d="M273 0L273 1L284 1L273 0z"/>
<path style="fill:#c3c3c3; stroke:none;" d="M284 0L285 1L284 0z"/>
<path style="fill:#a5a5a5; stroke:none;" d="M285 0L286 1L285 0z"/>
<path style="fill:#fdfefe; stroke:none;" d="M286 0L279 13L556 13L554 7L554 6L554 5L556 0L286 0z"/>
<path style="fill:#878787; stroke:none;" d="M271 1L272 2L271 1z"/>
<path style="fill:#3b3b3b; stroke:none;" d="M272 1L278 12L279 12L285 1L272 1z"/>
<path style="fill:#878787; stroke:none;" d="M273 1L274 2L273 1z"/>
<path style="fill:#a5a5a5; stroke:none;" d="M274 1L275 2L274 1z"/>
<path style="fill:#c3c3c3; stroke:none;" d="M275 1L276 2L275 1M281 1L282 2L281 1z"/>
<path style="fill:#a5a5a5; stroke:none;" d="M282 1L283 2L282 1z"/>
<path style="fill:#878787; stroke:none;" d="M283 1L284 2L283 1M285 1L286 2L285 1M277 2L278 3L277 2z"/>
<path style="fill:#c3c3c3; stroke:none;" d="M278 2L279 3L278 2z"/>
<path style="fill:#a5a5a5; stroke:none;" d="M279 2L280 3L279 2z"/>
<path style="fill:#c3c3c3; stroke:none;" d="M285 2L286 3L285 2M272 3L273 4L272 3z"/>
<path style="fill:#a5a5a5; stroke:none;" d="M284 3L285 4L284 3z"/>
<path style="fill:#878787; stroke:none;" d="M273 4L274 5L273 4M283 4L284 5L283 4z"/>
<path style="fill:#c3c3c3; stroke:none;" d="M0 5L0 7L2 7L2 5L0 5M8 5L8 7L10 7L10 5L8 5M16 5L16 7L18 7L18 5L16 5M24 5L24 7L26 7L26 5L24 5M32 5L32 7L34 7L34 5L32 5M40 5L40 7L42 7L42 5L40 5M48 5L48 7L50 7L50 5L48 5M56 5L56 7L58 7L58 5L56 5M64 5L64 7L66 7L66 5L64 5M72 5L72 7L74 7L74 5L72 5M80 5L80 7L82 7L82 5L80 5M88 5L88 7L90 7L90 5L88 5M96 5L96 7L98 7L98 5L96 5M104 5L104 7L106 7L106 5L104 5M112 5L112 7L114 7L114 5L112 5M120 5L120 7L122 7L122 5L120 5M128 5L128 7L130 7L130 5L128 5M136 5L136 7L138 7L138 5L136 5M144 5L144 7L146 7L146 5L144 5M152 5L152 7L154 7L154 5L152 5M160 5L160 7L162 7L162 5L160 5M168 5L168 7L170 7L170 5L168 5M176 5L176 7L178 7L178 5L176 5M184 5L184 7L186 7L186 5L184 5M192 5L192 7L194 7L194 5L192 5M200 5L200 7L202 7L202 5L200 5M208 5L208 7L210 7L210 5L208 5M216 5L216 7L218 7L218 5L216 5M224 5L224 7L226 7L226 5L224 5M232 5L232 7L234 7L234 5L232 5M283 5L284 6L283 5M322 5L322 7L324 7L324 5L322 5M330 5L330 7L332 7L332 5L330 5M338 5L338 7L340 7L340 5L338 5M346 5L346 7L348 7L348 5L346 5M354 5L354 7L356 7L356 5L354 5M362 5L362 7L364 7L364 5L362 5M370 5L370 7L372 7L372 5L370 5M378 5L378 7L380 7L380 5L378 5M386 5L386 7L388 7L388 5L386 5M394 5L394 7L396 7L396 5L394 5M402 5L402 7L404 7L404 5L402 5M410 5L410 7L412 7L412 5L410 5M418 5L418 7L420 7L420 5L418 5M426 5L426 7L428 7L428 5L426 5M434 5L434 7L436 7L436 5L434 5M442 5L442 7L444 7L444 5L442 5M450 5L450 7L452 7L452 5L450 5M458 5L458 7L460 7L460 5L458 5M466 5L466 7L468 7L468 5L466 5M474 5L474 7L476 7L476 5L474 5M482 5L482 7L484 7L484 5L482 5M490 5L490 7L492 7L492 5L490 5M498 5L498 7L500 7L500 5L498 5M506 5L506 7L508 7L508 5L506 5M514 5L514 7L516 7L516 5L514 5M522 5L522 7L524 7L524 5L522 5M530 5L530 7L532 7L532 5L530 5M538 5L538 7L540 7L540 5L538 5M546 5L546 7L548 7L548 5L546 5M554 5L554 7L556 7L556 5L554 5z"/>
<path style="fill:#a5a5a5; stroke:none;" d="M274 6L275 7L274 6z"/>
<path style="fill:#878787; stroke:none;" d="M282 6L283 7L282 6M275 7L276 8L275 7z"/>
<path style="fill:#c3c3c3; stroke:none;" d="M275 8L276 9L275 8M281 8L282 9L281 8z"/>
<path style="fill:#878787; stroke:none;" d="M276 9L277 10L276 9M280 9L281 10L280 9z"/>
<path style="fill:#c3c3c3; stroke:none;" d="M277 11L278 12L277 11z"/>
<path style="fill:#a5a5a5; stroke:none;" d="M279 11L280 12L279 11M278 12L279 13L278 12z"/>
</svg>
