<?xml version="1.0" standalone="yes"?>
<svg xmlns="http://www.w3.org/2000/svg" width="428" height="13">
<path style="fill:#fefefe; stroke:none;" d="M0 0L2 5L2 6L2 7L0 13L214 13L206.39 1.02778L193 0L159 0L0 0z"/>
<path style="fill:#a8a8a8; stroke:none;" d="M207 0L208 1L207 0z"/>
<path style="fill:#c5c5c5; stroke:none;" d="M208 0L209 1L208 0z"/>
<path style="fill:#fefefe; stroke:none;" d="M209 0L209 1L220 1L209 0z"/>
<path style="fill:#c5c5c5; stroke:none;" d="M220 0L221 1L220 0z"/>
<path style="fill:#a8a8a8; stroke:none;" d="M221 0L222 1L221 0z"/>
<path style="fill:#fefefe; stroke:none;" d="M222 0L215 13L428 13L426 7L426 6L426 5L428 0L222 0z"/>
<path style="fill:#888888; stroke:none;" d="M207 1L208 2L207 1z"/>
<path style="fill:#3b3b3b; stroke:none;" d="M208 1L214 12L215 12L221 1L208 1z"/>
<path style="fill:#888888; stroke:none;" d="M209 1L210 2L209 1z"/>
<path style="fill:#a8a8a8; stroke:none;" d="M210 1L211 2L210 1z"/>
<path style="fill:#c5c5c5; stroke:none;" d="M211 1L212 2L211 1M217 1L218 2L217 1z"/>
<path style="fill:#a8a8a8; stroke:none;" d="M218 1L219 2L218 1z"/>
<path style="fill:#888888; stroke:none;" d="M219 1L220 2L219 1M221 1L222 2L221 1M213 2L214 3L213 2z"/>
<path style="fill:#c5c5c5; stroke:none;" d="M214 2L215 3L214 2z"/>
<path style="fill:#a8a8a8; stroke:none;" d="M215 2L216 3L215 2z"/>
<path style="fill:#c5c5c5; stroke:none;" d="M221 2L222 3L221 2M208 3L209 4L208 3z"/>
<path style="fill:#a8a8a8; stroke:none;" d="M220 3L221 4L220 3z"/>
<path style="fill:#888888; stroke:none;" d="M209 4L210 5L209 4M219 4L220 5L219 4z"/>
<path style="fill:#c5c5c5; stroke:none;" d="M0 5L0 7L2 7L2 5L0 5M8 5L8 7L10 7L10 5L8 5M16 5L16 7L18 7L18 5L16 5M24 5L24 7L26 7L26 5L24 5M32 5L32 7L34 7L34 5L32 5M40 5L40 7L42 7L42 5L40 5M48 5L48 7L50 7L50 5L48 5M56 5L56 7L58 7L58 5L56 5M64 5L64 7L66 7L66 5L64 5M72 5L72 7L74 7L74 5L72 5M80 5L80 7L82 7L82 5L80 5M88 5L88 7L90 7L90 5L88 5M96 5L96 7L98 7L98 5L96 5M104 5L104 7L106 7L106 5L104 5M112 5L112 7L114 7L114 5L112 5M120 5L120 7L122 7L122 5L120 5M128 5L128 7L130 7L130 5L128 5M136 5L136 7L138 7L138 5L136 5M144 5L144 7L146 7L146 5L144 5M152 5L152 7L154 7L154 5L152 5M160 5L160 7L162 7L162 5L160 5M168 5L168 7L170 7L170 5L168 5M219 5L220 6L219 5M258 5L258 7L260 7L260 5L258 5M266 5L266 7L268 7L268 5L266 5M274 5L274 7L276 7L276 5L274 5M282 5L282 7L284 7L284 5L282 5M290 5L290 7L292 7L292 5L290 5M298 5L298 7L300 7L300 5L298 5M306 5L306 7L308 7L308 5L306 5M314 5L314 7L316 7L316 5L314 5M322 5L322 7L324 7L324 5L322 5M330 5L330 7L332 7L332 5L330 5M338 5L338 7L340 7L340 5L338 5M346 5L346 7L348 7L348 5L346 5M354 5L354 7L356 7L356 5L354 5M362 5L362 7L364 7L364 5L362 5M370 5L370 7L372 7L372 5L370 5M378 5L378 7L380 7L380 5L378 5M386 5L386 7L388 7L388 5L386 5M394 5L394 7L396 7L396 5L394 5M402 5L402 7L404 7L404 5L402 5M410 5L410 7L412 7L412 5L410 5M418 5L418 7L420 7L420 5L418 5M426 5L426 7L428 7L428 5L426 5z"/>
<path style="fill:#a8a8a8; stroke:none;" d="M210 6L211 7L210 6z"/>
<path style="fill:#888888; stroke:none;" d="M218 6L219 7L218 6M211 7L212 8L211 7z"/>
<path style="fill:#c5c5c5; stroke:none;" d="M211 8L212 9L211 8M217 8L218 9L217 8z"/>
<path style="fill:#888888; stroke:none;" d="M212 9L213 10L212 9M216 9L217 10L216 9z"/>
<path style="fill:#c5c5c5; stroke:none;" d="M213 11L214 12L213 11z"/>
<path style="fill:#a8a8a8; stroke:none;" d="M215 11L216 12L215 11M214 12L215 13L214 12z"/>
</svg>
