<?xml version="1.0" standalone="yes"?>
<svg xmlns="http://www.w3.org/2000/svg" width="157" height="157">
<path style="fill:#feffff; stroke:none;" d="M0 0L0 157L157 157L157 0L0 0z"/>
<path style="fill:#b3e9e0; stroke:none;" d="M67 3L67 4L70 4L67 3z"/>
<path style="fill:#82d9cb; stroke:none;" d="M70.6667 3.33333L71.3333 3.66667L70.6667 3.33333z"/>
<path style="fill:#5ccdbb; stroke:none;" d="M72 3L72 4L75 4L72 3z"/>
<path style="fill:#3ec6b2; stroke:none;" d="M75 3.42516C47.3498 6.93298 23.9557 19.0299 10.9707 45C-14.6101 96.1616 28.4784 159.778 86 152.714C121.622 148.339 149.345 121.02 152.83 85C156.889 43.0585 119.442 -2.21298 75 3.42516z"/>
<path style="fill:#5ccdbb; stroke:none;" d="M82.6667 3.33333L83.3333 3.66667L82.6667 3.33333z"/>
<path style="fill:#82d9cb; stroke:none;" d="M84 3L84 4L87 4L84 3z"/>
<path style="fill:#b3e9e0; stroke:none;" d="M87.6667 3.33333L88.3333 3.66667L87.6667 3.33333M62 4L63 5L62 4z"/>
<path style="fill:#82d9cb; stroke:none;" d="M63.6667 4.33333L64.3333 4.66667L63.6667 4.33333z"/>
<path style="fill:#5ccdbb; stroke:none;" d="M65 4L66 5L65 4M91 4L92 5L91 4z"/>
<path style="fill:#82d9cb; stroke:none;" d="M92 4L93 5L92 4z"/>
<path style="fill:#b3e9e0; stroke:none;" d="M93.6667 4.33333L94.3333 4.66667L93.6667 4.33333M58 5L59 6L58 5z"/>
<path style="fill:#82d9cb; stroke:none;" d="M59 5L60 6L59 5z"/>
<path style="fill:#5ccdbb; stroke:none;" d="M60 5L61 6L60 5M96 5L97 6L96 5z"/>
<path style="fill:#b3e9e0; stroke:none;" d="M97.6667 5.33333L98.3333 5.66667L97.6667 5.33333M54.6667 6.33333L55.3333 6.66667L54.6667 6.33333z"/>
<path style="fill:#5ccdbb; stroke:none;" d="M56 6L57 7L56 6z"/>
<path style="fill:#82d9cb; stroke:none;" d="M100 6L101 7L100 6z"/>
<path style="fill:#b3e9e0; stroke:none;" d="M101 6L102 7L101 6M52 7L53 8L52 7z"/>
<path style="fill:#5ccdbb; stroke:none;" d="M53 7L54 8L53 7z"/>
<path style="fill:#82d9cb; stroke:none;" d="M103 7L104 8L103 7z"/>
<path style="fill:#b3e9e0; stroke:none;" d="M104 7L105 8L104 7M49 8L50 9L49 8z"/>
<path style="fill:#82d9cb; stroke:none;" d="M50 8L51 9L50 8z"/>
<path style="fill:#5ccdbb; stroke:none;" d="M105 8L106 9L105 8z"/>
<path style="fill:#b3e9e0; stroke:none;" d="M106 8L107 9L106 8M47 9L48 10L47 9z"/>
<path style="fill:#5ccdbb; stroke:none;" d="M48 9L49 10L48 9z"/>
<path style="fill:#82d9cb; stroke:none;" d="M108 9L109 10L108 9z"/>
<path style="fill:#b3e9e0; stroke:none;" d="M109 9L110 10L109 9M45 10L46 11L45 10z"/>
<path style="fill:#82d9cb; stroke:none;" d="M110 10L111 11L110 10z"/>
<path style="fill:#b3e9e0; stroke:none;" d="M111 10L112 11L111 10M43 11L44 12L43 11z"/>
<path style="fill:#82d9cb; stroke:none;" d="M112 11L113 12L112 11z"/>
<path style="fill:#b3e9e0; stroke:none;" d="M113 11L114 12L113 11M41 12L42 13L41 12z"/>
<path style="fill:#5ccdbb; stroke:none;" d="M42 12L43 13L42 12z"/>
<path style="fill:#82d9cb; stroke:none;" d="M114 12L115 13L114 12z"/>
<path style="fill:#b3e9e0; stroke:none;" d="M115 12L116 13L115 12M39 13L40 14L39 13z"/>
<path style="fill:#5ccdbb; stroke:none;" d="M40 13L41 14L40 13z"/>
<path style="fill:#82d9cb; stroke:none;" d="M116 13L117 14L116 13M38 14L39 15L38 14z"/>
<path style="fill:#5ccdbb; stroke:none;" d="M117 14L118 15L117 14z"/>
<path style="fill:#b3e9e0; stroke:none;" d="M118 14L119 15L118 14M36 15L37 16L36 15z"/>
<path style="fill:#82d9cb; stroke:none;" d="M119 15L120 16L119 15M35 16L36 17L35 16z"/>
<path style="fill:#b3e9e0; stroke:none;" d="M121 16L122 17L121 16M33 17L34 18L33 17z"/>
<path style="fill:#5ccdbb; stroke:none;" d="M34 17L35 18L34 17z"/>
<path style="fill:#82d9cb; stroke:none;" d="M122 17L123 18L122 17z"/>
<path style="fill:#b3e9e0; stroke:none;" d="M32 18L33 19L32 18z"/>
<path style="fill:#5ccdbb; stroke:none;" d="M123 18L124 19L123 18z"/>
<path style="fill:#82d9cb; stroke:none;" d="M31 19L32 20L31 19z"/>
<path style="fill:#b3e9e0; stroke:none;" d="M125 19L126 20L125 19z"/>
<path style="fill:#5ccdbb; stroke:none;" d="M30 20L31 21L30 20z"/>
<path style="fill:#b3e9e0; stroke:none;" d="M126 20L127 21L126 20M28 21L29 22L28 21z"/>
<path style="fill:#82d9cb; stroke:none;" d="M127 21L128 22L127 21z"/>
<path style="fill:#b3e9e0; stroke:none;" d="M27 22L28 23L27 22z"/>
<path style="fill:#82d9cb; stroke:none;" d="M128 22L129 23L128 22z"/>
<path style="fill:#b3e9e0; stroke:none;" d="M26 23L27 24L26 23z"/>
<path style="fill:#82d9cb; stroke:none;" d="M129 23L130 24L129 23z"/>
<path style="fill:#b3e9e0; stroke:none;" d="M25 24L26 25L25 24z"/>
<path style="fill:#5ccdbb; stroke:none;" d="M130 24L131 25L130 24z"/>
<path style="fill:#b3e9e0; stroke:none;" d="M24 25L25 26L24 25z"/>
<path style="fill:#5ccdbb; stroke:none;" d="M131 25L132 26L131 25z"/>
<path style="fill:#b3e9e0; stroke:none;" d="M23 26L24 27L23 26z"/>
<path style="fill:#82d9cb; stroke:none;" d="M132 26L133 27L132 26z"/>
<path style="fill:#b3e9e0; stroke:none;" d="M22 27L23 28L22 27z"/>
<path style="fill:#82d9cb; stroke:none;" d="M133 27L134 28L133 27z"/>
<path style="fill:#b3e9e0; stroke:none;" d="M21 28L22 29L21 28z"/>
<path style="fill:#82d9cb; stroke:none;" d="M134 28L135 29L134 28z"/>
<path style="fill:#5ccdbb; stroke:none;" d="M21 29L22 30L21 29z"/>
<path style="fill:#b3e9e0; stroke:none;" d="M135 29L136 30L135 29z"/>
<path style="fill:#5ccdbb; stroke:none;" d="M20 30L21 31L20 30z"/>
<path style="fill:#b3e9e0; stroke:none;" d="M136 30L137 31L136 30z"/>
<path style="fill:#82d9cb; stroke:none;" d="M19 31L20 32L19 31z"/>
<path style="fill:#b3e9e0; stroke:none;" d="M137 31L138 32L137 31M18 32L19 33L18 32z"/>
<path style="fill:#5ccdbb; stroke:none;" d="M137 32L138 33L137 32z"/>
<path style="fill:#b3e9e0; stroke:none;" d="M17 33L18 34L17 33z"/>
<path style="fill:#82d9cb; stroke:none;" d="M138 33L139 34L138 33z"/>
<path style="fill:#5ccdbb; stroke:none;" d="M17 34L18 35L17 34z"/>
<path style="fill:#b3e9e0; stroke:none;" d="M139 34L140 35L139 34z"/>
<path style="fill:#82d9cb; stroke:none;" d="M16 35L17 36L16 35z"/>
<path style="fill:#b3e9e0; stroke:none;" d="M140 35L141 36L140 35M15 36L16 37L15 36z"/>
<path style="fill:#5ccdbb; stroke:none;" d="M140 36L141 37L140 36M15 37L16 38L15 37z"/>
<path style="fill:#b3e9e0; stroke:none;" d="M141 37L142 38L141 37z"/>
<path style="fill:#82d9cb; stroke:none;" d="M14 38L15 39L14 38z"/>
<path style="fill:#b3e9e0; stroke:none;" d="M13 39L14 40L13 39z"/>
<path style="fill:#82d9cb; stroke:none;" d="M142 39L143 40L142 39z"/>
<path style="fill:#5ccdbb; stroke:none;" d="M13 40L14 41L13 40z"/>
<path style="fill:#b3e9e0; stroke:none;" d="M143 40L144 41L143 40M12 41L13 42L12 41z"/>
<path style="fill:#5ccdbb; stroke:none;" d="M143 41L144 42L143 41M12 42L13 43L12 42z"/>
<path style="fill:#b3e9e0; stroke:none;" d="M144 42L145 43L144 42M11 43L12 44L11 43z"/>
<path style="fill:#5ccdbb; stroke:none;" d="M144 43L145 44L144 43z"/>
<path style="fill:#b3e9e0; stroke:none;" d="M145 44L146 45L145 44M10 45L11 46L10 45z"/>
<path style="fill:#5ccdbb; stroke:none;" d="M145 45L146 46L145 45z"/>
<path style="fill:#b3e9e0; stroke:none;" d="M146 46L147 47L146 46M9 47L10 48L9 47z"/>
<path style="fill:#5ccdbb; stroke:none;" d="M146 47L147 48L146 47M9 48L10 49L9 48z"/>
<path style="fill:#b3e9e0; stroke:none;" d="M147 48L148 49L147 48M8 49L9 50L8 49z"/>
<path style="fill:#82d9cb; stroke:none;" d="M147 49L148 50L147 49M8 50L9 51L8 50z"/>
<path style="fill:#b3e9e0; stroke:none;" d="M148 50L149 51L148 50z"/>
<path style="fill:#82d9cb; stroke:none;" d="M148 51L149 52L148 51z"/>
<path style="fill:#b3e9e0; stroke:none;" d="M7 52L8 53L7 52z"/>
<path style="fill:#5ccdbb; stroke:none;" d="M148 52L149 53L148 52M7 53L8 54L7 53z"/>
<path style="fill:#b3e9e0; stroke:none;" d="M149 53L150 54L149 53M6.33333 54.6667L6.66667 55.3333L6.33333 54.6667z"/>
<path style="fill:#82d9cb; stroke:none;" d="M149 54L150 55L149 54M83 55L84 56L83 55z"/>
<path style="fill:#5ccdbb; stroke:none;" d="M6 56L7 57L6 56z"/>
<path style="fill:#b3e9e0; stroke:none;" d="M82 56L83 57L82 56z"/>
<path style="fill:#feffff; stroke:none;" d="M83 56L70 101L74 101C76.6996 87.9556 87.7221 69.0628 85 56L83 56z"/>
<path style="fill:#b3e9e0; stroke:none;" d="M85 56L86 57L85 56z"/>
<path style="fill:#5ccdbb; stroke:none;" d="M86 56L87 57L86 56z"/>
<path style="fill:#b3e9e0; stroke:none;" d="M150 56L151 57L150 56z"/>
<path style="fill:#82d9cb; stroke:none;" d="M86 57L87 58L86 57M150 57L151 58L150 57z"/>
<path style="fill:#b3e9e0; stroke:none;" d="M5 58L6 59L5 58z"/>
<path style="fill:#82d9cb; stroke:none;" d="M81 58L82 59L81 58z"/>
<path style="fill:#5ccdbb; stroke:none;" d="M86 58L87 59L86 58M150 58L151 59L150 58z"/>
<path style="fill:#82d9cb; stroke:none;" d="M5 59L6 60L5 59z"/>
<path style="fill:#b3e9e0; stroke:none;" d="M81 59L82 60L81 59z"/>
<path style="fill:#5ccdbb; stroke:none;" d="M5 60L6 61L5 60z"/>
<path style="fill:#b3e9e0; stroke:none;" d="M85 60L86 61L85 60M151 60L152 61L151 60z"/>
<path style="fill:#5ccdbb; stroke:none;" d="M80 61L81 62L80 61z"/>
<path style="fill:#82d9cb; stroke:none;" d="M85 61L86 62L85 61M151 61L152 62L151 61z"/>
<path style="fill:#b3e9e0; stroke:none;" d="M4 62L5 63L4 62M63 62L48 78C52.9961 74.4807 61.5286 68.0703 63 62z"/>
<path style="fill:#feffff; stroke:none;" d="M64 62C59.9036 66.0964 50.7784 72.2529 49.3457 78C47.7933 84.2273 61.6055 95.0465 67 93L67 92L53 79L53 78L67 65L67 64L64 62z"/>
<path style="fill:#5ccdbb; stroke:none;" d="M65 62L66 63L65 62z"/>
<path style="fill:#82d9cb; stroke:none;" d="M80 62L81 63L80 62z"/>
<path style="fill:#b3e9e0; stroke:none;" d="M91 62L89 65L91 62z"/>
<path style="fill:#feffff; stroke:none;" d="M92 62C89.4906 68.6148 98.0323 74.5006 103 78L103 79C97.9381 82.5657 90.0465 88.2511 91 95C95.6416 92.8354 107.772 83.8783 107.079 78C106.406 72.2981 96.388 65.0909 92 62z"/>
<path style="fill:#5ccdbb; stroke:none;" d="M93 62L94 63L93 62M151 62L152 63L151 62z"/>
<path style="fill:#82d9cb; stroke:none;" d="M4.33333 63.6667L4.66667 64.3333L4.33333 63.6667z"/>
<path style="fill:#5ccdbb; stroke:none;" d="M66 63L67 64L66 63z"/>
<path style="fill:#b3e9e0; stroke:none;" d="M80 63L81 64L80 63M84 63L85 64L84 63z"/>
<path style="fill:#5ccdbb; stroke:none;" d="M94 63L95 64L94 63z"/>
<path style="fill:#82d9cb; stroke:none;" d="M84 64L85 65L84 64z"/>
<path style="fill:#5ccdbb; stroke:none;" d="M95 64L96 65L95 64z"/>
<path style="fill:#b3e9e0; stroke:none;" d="M152.333 64.6667L152.667 65.3333L152.333 64.6667z"/>
<path style="fill:#5ccdbb; stroke:none;" d="M4 65L5 66L4 65z"/>
<path style="fill:#b3e9e0; stroke:none;" d="M66 65L67 66L66 65z"/>
<path style="fill:#82d9cb; stroke:none;" d="M79 65L80 66L79 65z"/>
<path style="fill:#5ccdbb; stroke:none;" d="M84 65L85 66L84 65z"/>
<path style="fill:#82d9cb; stroke:none;" d="M89 65L90 66L89 65z"/>
<path style="fill:#5ccdbb; stroke:none;" d="M96 65L97 66L96 65z"/>
<path style="fill:#b3e9e0; stroke:none;" d="M65 66L66 67L65 66M79 66L80 67L79 66z"/>
<path style="fill:#82d9cb; stroke:none;" d="M90 66L91 67L90 66z"/>
<path style="fill:#5ccdbb; stroke:none;" d="M97 66L98 67L97 66z"/>
<path style="fill:#82d9cb; stroke:none;" d="M152.333 66.6667L152.667 67.3333L152.333 66.6667z"/>
<path style="fill:#b3e9e0; stroke:none;" d="M3 67L3 70L4 70L3 67M64 67L65 68L64 67M83 67L84 68L83 67z"/>
<path style="fill:#82d9cb; stroke:none;" d="M91 67L92 68L91 67z"/>
<path style="fill:#5ccdbb; stroke:none;" d="M98 67L99 68L98 67z"/>
<path style="fill:#b3e9e0; stroke:none;" d="M63 68L64 69L63 68z"/>
<path style="fill:#5ccdbb; stroke:none;" d="M78 68L79 69L78 68z"/>
<path style="fill:#82d9cb; stroke:none;" d="M83 68L84 69L83 68M92 68L93 69L92 68z"/>
<path style="fill:#5ccdbb; stroke:none;" d="M99 68L100 69L99 68M152 68L153 69L152 68z"/>
<path style="fill:#b3e9e0; stroke:none;" d="M62 69L63 70L62 69M78.3333 69.6667L78.6667 70.3333L78.3333 69.6667z"/>
<path style="fill:#82d9cb; stroke:none;" d="M93 69L94 70L93 69z"/>
<path style="fill:#5ccdbb; stroke:none;" d="M100 69L101 70L100 69z"/>
<path style="fill:#82d9cb; stroke:none;" d="M3.33333 70.6667L3.66667 71.3333L3.33333 70.6667z"/>
<path style="fill:#b3e9e0; stroke:none;" d="M61 70L62 71L61 70M82 70L83 71L82 70z"/>
<path style="fill:#82d9cb; stroke:none;" d="M94 70L95 71L94 70z"/>
<path style="fill:#5ccdbb; stroke:none;" d="M101 70L102 71L101 70z"/>
<path style="fill:#b3e9e0; stroke:none;" d="M60 71L61 72L60 71z"/>
<path style="fill:#82d9cb; stroke:none;" d="M82 71L83 72L82 71M95 71L96 72L95 71z"/>
<path style="fill:#5ccdbb; stroke:none;" d="M102 71L103 72L102 71M3 72L3 75L4 75L3 72z"/>
<path style="fill:#b3e9e0; stroke:none;" d="M59 72L60 73L59 72z"/>
<path style="fill:#82d9cb; stroke:none;" d="M77 72L78 73L77 72z"/>
<path style="fill:#5ccdbb; stroke:none;" d="M82 72L83 73L82 72z"/>
<path style="fill:#82d9cb; stroke:none;" d="M96 72L97 73L96 72z"/>
<path style="fill:#5ccdbb; stroke:none;" d="M103 72L104 73L103 72z"/>
<path style="fill:#b3e9e0; stroke:none;" d="M153 72L153 85L154 85L153 72M58 73L59 74L58 73M77 73L78 74L77 73z"/>
<path style="fill:#82d9cb; stroke:none;" d="M97 73L98 74L97 73z"/>
<path style="fill:#5ccdbb; stroke:none;" d="M104 73L105 74L104 73z"/>
<path style="fill:#b3e9e0; stroke:none;" d="M57 74L58 75L57 74M81 74L82 75L81 74z"/>
<path style="fill:#82d9cb; stroke:none;" d="M98 74L99 75L98 74z"/>
<path style="fill:#5ccdbb; stroke:none;" d="M105 74L106 75L105 74z"/>
<path style="fill:#b3e9e0; stroke:none;" d="M56 75L57 76L56 75z"/>
<path style="fill:#82d9cb; stroke:none;" d="M81 75L82 76L81 75M99 75L100 76L99 75z"/>
<path style="fill:#5ccdbb; stroke:none;" d="M106 75L107 76L106 75z"/>
<path style="fill:#b3e9e0; stroke:none;" d="M55 76L56 77L55 76z"/>
<path style="fill:#82d9cb; stroke:none;" d="M76 76L77 77L76 76M100 76L101 77L100 76z"/>
<path style="fill:#5ccdbb; stroke:none;" d="M107 76L108 77L107 76z"/>
<path style="fill:#b3e9e0; stroke:none;" d="M54 77L55 78L54 77M76 77L77 78L76 77M80 77L81 78L80 77z"/>
<path style="fill:#82d9cb; stroke:none;" d="M101 77L102 78L101 77z"/>
<path style="fill:#5ccdbb; stroke:none;" d="M108 77L109 78L108 77z"/>
<path style="fill:#82d9cb; stroke:none;" d="M47 78L48 79L47 78z"/>
<path style="fill:#b3e9e0; stroke:none;" d="M53 78L54 79L53 78z"/>
<path style="fill:#82d9cb; stroke:none;" d="M80 78L81 79L80 78M102 78L103 79L102 78z"/>
<path style="fill:#b3e9e0; stroke:none;" d="M108 78L109 79L108 78z"/>
<path style="fill:#5ccdbb; stroke:none;" d="M47 79L48 80L47 79z"/>
<path style="fill:#82d9cb; stroke:none;" d="M54 79L55 80L54 79M75 79L76 80L75 79z"/>
<path style="fill:#5ccdbb; stroke:none;" d="M80 79L81 80L80 79M101 79L102 80L101 79z"/>
<path style="fill:#82d9cb; stroke:none;" d="M108 79L109 80L108 79z"/>
<path style="fill:#5ccdbb; stroke:none;" d="M48 80L49 81L48 80z"/>
<path style="fill:#82d9cb; stroke:none;" d="M55 80L56 81L55 80z"/>
<path style="fill:#b3e9e0; stroke:none;" d="M75 80L76 81L75 80z"/>
<path style="fill:#5ccdbb; stroke:none;" d="M100 80L101 81L100 80z"/>
<path style="fill:#82d9cb; stroke:none;" d="M107 80L108 81L107 80z"/>
<path style="fill:#5ccdbb; stroke:none;" d="M49 81L50 82L49 81z"/>
<path style="fill:#82d9cb; stroke:none;" d="M56 81L57 82L56 81z"/>
<path style="fill:#b3e9e0; stroke:none;" d="M79 81L80 82L79 81z"/>
<path style="fill:#5ccdbb; stroke:none;" d="M99 81L100 82L99 81z"/>
<path style="fill:#82d9cb; stroke:none;" d="M106 81L107 82L106 81z"/>
<path style="fill:#5ccdbb; stroke:none;" d="M3.33333 82.6667L3.66667 83.3333L3.33333 82.6667M50 82L51 83L50 82z"/>
<path style="fill:#82d9cb; stroke:none;" d="M57 82L58 83L57 82z"/>
<path style="fill:#5ccdbb; stroke:none;" d="M74 82L75 83L74 82z"/>
<path style="fill:#82d9cb; stroke:none;" d="M79 82L80 83L79 82z"/>
<path style="fill:#5ccdbb; stroke:none;" d="M98 82L99 83L98 82z"/>
<path style="fill:#82d9cb; stroke:none;" d="M105 82L106 83L105 82z"/>
<path style="fill:#5ccdbb; stroke:none;" d="M51 83L52 84L51 83z"/>
<path style="fill:#82d9cb; stroke:none;" d="M58 83L59 84L58 83M74 83L75 84L74 83z"/>
<path style="fill:#5ccdbb; stroke:none;" d="M97 83L98 84L97 83z"/>
<path style="fill:#82d9cb; stroke:none;" d="M104 83L105 84L104 83M3 84L3 87L4 87L3 84z"/>
<path style="fill:#5ccdbb; stroke:none;" d="M52 84L53 85L52 84z"/>
<path style="fill:#82d9cb; stroke:none;" d="M59 84L60 85L59 84z"/>
<path style="fill:#b3e9e0; stroke:none;" d="M74 84L75 85L74 84M78 84L79 85L78 84z"/>
<path style="fill:#5ccdbb; stroke:none;" d="M96 84L97 85L96 84z"/>
<path style="fill:#82d9cb; stroke:none;" d="M103 84L104 85L103 84z"/>
<path style="fill:#5ccdbb; stroke:none;" d="M53 85L54 86L53 85z"/>
<path style="fill:#82d9cb; stroke:none;" d="M60 85L61 86L60 85M78 85L79 86L78 85z"/>
<path style="fill:#5ccdbb; stroke:none;" d="M95 85L96 86L95 85z"/>
<path style="fill:#82d9cb; stroke:none;" d="M102 85L103 86L102 85z"/>
<path style="fill:#5ccdbb; stroke:none;" d="M54 86L55 87L54 86z"/>
<path style="fill:#82d9cb; stroke:none;" d="M61 86L62 87L61 86M73 86L74 87L73 86z"/>
<path style="fill:#5ccdbb; stroke:none;" d="M78 86L79 87L78 86M94 86L95 87L94 86z"/>
<path style="fill:#82d9cb; stroke:none;" d="M101 86L102 87L101 86z"/>
<path style="fill:#b3e9e0; stroke:none;" d="M3.33333 87.6667L3.66667 88.3333L3.33333 87.6667z"/>
<path style="fill:#5ccdbb; stroke:none;" d="M55 87L56 88L55 87z"/>
<path style="fill:#82d9cb; stroke:none;" d="M62 87L63 88L62 87z"/>
<path style="fill:#b3e9e0; stroke:none;" d="M73 87L74 88L73 87M77.3333 87.6667L77.6667 88.3333L77.3333 87.6667z"/>
<path style="fill:#5ccdbb; stroke:none;" d="M93 87L94 88L93 87z"/>
<path style="fill:#82d9cb; stroke:none;" d="M100 87L101 88L100 87z"/>
<path style="fill:#5ccdbb; stroke:none;" d="M152.333 87.6667L152.667 88.3333L152.333 87.6667M56 88L57 89L56 88z"/>
<path style="fill:#82d9cb; stroke:none;" d="M63 88L64 89L63 88z"/>
<path style="fill:#5ccdbb; stroke:none;" d="M92 88L93 89L92 88z"/>
<path style="fill:#82d9cb; stroke:none;" d="M99 88L100 89L99 88z"/>
<path style="fill:#5ccdbb; stroke:none;" d="M57 89L58 90L57 89z"/>
<path style="fill:#82d9cb; stroke:none;" d="M64 89L65 90L64 89z"/>
<path style="fill:#5ccdbb; stroke:none;" d="M72 89L73 90L72 89M77 89L78 90L77 89M91 89L92 90L91 89z"/>
<path style="fill:#82d9cb; stroke:none;" d="M98 89L99 90L98 89M152 89L153 90L152 89z"/>
<path style="fill:#5ccdbb; stroke:none;" d="M58 90L59 91L58 90z"/>
<path style="fill:#82d9cb; stroke:none;" d="M65 90L66 91L65 90M72 90L73 91L72 90z"/>
<path style="fill:#5ccdbb; stroke:none;" d="M90 90L91 91L90 90z"/>
<path style="fill:#82d9cb; stroke:none;" d="M97 90L98 91L97 90z"/>
<path style="fill:#b3e9e0; stroke:none;" d="M152.333 90.6667L152.667 91.3333L152.333 90.6667z"/>
<path style="fill:#5ccdbb; stroke:none;" d="M4 91L5 92L4 91M59 91L60 92L59 91z"/>
<path style="fill:#82d9cb; stroke:none;" d="M66 91L67 92L66 91z"/>
<path style="fill:#b3e9e0; stroke:none;" d="M72 91L73 92L72 91M76 91L77 92L76 91z"/>
<path style="fill:#5ccdbb; stroke:none;" d="M89 91L90 92L89 91z"/>
<path style="fill:#82d9cb; stroke:none;" d="M96 91L97 92L96 91M4 92L5 93L4 92z"/>
<path style="fill:#5ccdbb; stroke:none;" d="M60 92L61 93L60 92z"/>
<path style="fill:#82d9cb; stroke:none;" d="M76 92L77 93L76 92z"/>
<path style="fill:#b3e9e0; stroke:none;" d="M89 92L90 93L89 92z"/>
<path style="fill:#82d9cb; stroke:none;" d="M95 92L96 93L95 92z"/>
<path style="fill:#b3e9e0; stroke:none;" d="M4.33333 93.6667L4.66667 94.3333L4.33333 93.6667z"/>
<path style="fill:#5ccdbb; stroke:none;" d="M61 93L62 94L61 93z"/>
<path style="fill:#b3e9e0; stroke:none;" d="M66 93L67 94L66 93z"/>
<path style="fill:#82d9cb; stroke:none;" d="M71 93L72 94L71 93z"/>
<path style="fill:#5ccdbb; stroke:none;" d="M76 93L77 94L76 93z"/>
<path style="fill:#82d9cb; stroke:none;" d="M89 93L90 94L89 93M94 93L95 94L94 93z"/>
<path style="fill:#5ccdbb; stroke:none;" d="M151 93L152 94L151 93M62 94L63 95L62 94z"/>
<path style="fill:#b3e9e0; stroke:none;" d="M65 94L66 95L65 94M71 94L72 95L71 94M75.3333 94.6667L75.6667 95.3333L75.3333 94.6667z"/>
<path style="fill:#82d9cb; stroke:none;" d="M90 94L91 95L90 94M93 94L94 95L93 94M151 94L152 95L151 94z"/>
<path style="fill:#5ccdbb; stroke:none;" d="M63 95L64 96L63 95z"/>
<path style="fill:#82d9cb; stroke:none;" d="M64 95L65 96L64 95z"/>
<path style="fill:#5ccdbb; stroke:none;" d="M91 95L92 96L91 95z"/>
<path style="fill:#82d9cb; stroke:none;" d="M92 95L93 96L92 95z"/>
<path style="fill:#b3e9e0; stroke:none;" d="M151.333 95.6667L151.667 96.3333L151.333 95.6667z"/>
<path style="fill:#5ccdbb; stroke:none;" d="M5 96L6 97L5 96M70 96L71 97L70 96M75 96L76 97L75 96z"/>
<path style="fill:#b3e9e0; stroke:none;" d="M5.33333 97.6667L5.66667 98.3333L5.33333 97.6667z"/>
<path style="fill:#82d9cb; stroke:none;" d="M70 97L71 98L70 97z"/>
<path style="fill:#b3e9e0; stroke:none;" d="M70 98L71 99L70 98M74 98L75 99L74 98z"/>
<path style="fill:#82d9cb; stroke:none;" d="M150 98L151 99L150 98z"/>
<path style="fill:#5ccdbb; stroke:none;" d="M69.3333 99.6667L69.6667 100.333L69.3333 99.6667z"/>
<path style="fill:#82d9cb; stroke:none;" d="M74 99L75 100L74 99z"/>
<path style="fill:#b3e9e0; stroke:none;" d="M150 99L151 100L150 99z"/>
<path style="fill:#82d9cb; stroke:none;" d="M6 100L7 101L6 100z"/>
<path style="fill:#b3e9e0; stroke:none;" d="M6 101L7 102L6 101z"/>
<path style="fill:#82d9cb; stroke:none;" d="M71 101L72 102L71 101z"/>
<path style="fill:#b3e9e0; stroke:none;" d="M72 101L73 102L72 101z"/>
<path style="fill:#82d9cb; stroke:none;" d="M73 101L74 102L73 101z"/>
<path style="fill:#5ccdbb; stroke:none;" d="M149 101L150 102L149 101z"/>
<path style="fill:#b3e9e0; stroke:none;" d="M149 102L150 103L149 102z"/>
<path style="fill:#82d9cb; stroke:none;" d="M7 103L8 104L7 103z"/>
<path style="fill:#b3e9e0; stroke:none;" d="M7 104L8 105L7 104z"/>
<path style="fill:#82d9cb; stroke:none;" d="M148 104L149 105L148 104z"/>
<path style="fill:#5ccdbb; stroke:none;" d="M8 105L9 106L8 105z"/>
<path style="fill:#b3e9e0; stroke:none;" d="M148 105L149 106L148 105M8 106L9 107L8 106z"/>
<path style="fill:#82d9cb; stroke:none;" d="M147 107L148 108L147 107M9 108L10 109L9 108z"/>
<path style="fill:#b3e9e0; stroke:none;" d="M9 109L10 110L9 109z"/>
<path style="fill:#82d9cb; stroke:none;" d="M146 109L147 110L146 109M10 110L11 111L10 110z"/>
<path style="fill:#b3e9e0; stroke:none;" d="M146 110L147 111L146 110M10 111L11 112L10 111z"/>
<path style="fill:#82d9cb; stroke:none;" d="M145 111L146 112L145 111M11 112L12 113L11 112z"/>
<path style="fill:#b3e9e0; stroke:none;" d="M145 112L146 113L145 112M11 113L12 114L11 113z"/>
<path style="fill:#82d9cb; stroke:none;" d="M144 113L145 114L144 113M12 114L13 115L12 114z"/>
<path style="fill:#b3e9e0; stroke:none;" d="M12 115L13 116L12 115z"/>
<path style="fill:#82d9cb; stroke:none;" d="M143 115L144 116L143 115M13 116L14 117L13 116z"/>
<path style="fill:#5ccdbb; stroke:none;" d="M14 117L15 118L14 117z"/>
<path style="fill:#b3e9e0; stroke:none;" d="M142 117L143 118L142 117M14 118L15 119L14 118z"/>
<path style="fill:#5ccdbb; stroke:none;" d="M141 118L142 119L141 118z"/>
<path style="fill:#82d9cb; stroke:none;" d="M15 119L16 120L15 119z"/>
<path style="fill:#b3e9e0; stroke:none;" d="M141 119L142 120L141 119M140 120L141 121L140 120M16 121L17 122L16 121z"/>
<path style="fill:#82d9cb; stroke:none;" d="M139 121L140 122L139 121M17 122L18 123L17 122z"/>
<path style="fill:#5ccdbb; stroke:none;" d="M18 123L19 124L18 123z"/>
<path style="fill:#b3e9e0; stroke:none;" d="M138 123L139 124L138 123z"/>
<path style="fill:#82d9cb; stroke:none;" d="M137 124L138 125L137 124z"/>
<path style="fill:#b3e9e0; stroke:none;" d="M19 125L20 126L19 125z"/>
<path style="fill:#82d9cb; stroke:none;" d="M136 125L137 126L136 125z"/>
<path style="fill:#b3e9e0; stroke:none;" d="M20 126L21 127L20 126z"/>
<path style="fill:#5ccdbb; stroke:none;" d="M135 126L136 127L135 126z"/>
<path style="fill:#82d9cb; stroke:none;" d="M21 127L22 128L21 127M22 128L23 129L22 128z"/>
<path style="fill:#b3e9e0; stroke:none;" d="M134 128L135 129L134 128z"/>
<path style="fill:#82d9cb; stroke:none;" d="M23 129L24 130L23 129z"/>
<path style="fill:#b3e9e0; stroke:none;" d="M133 129L134 130L133 129z"/>
<path style="fill:#5ccdbb; stroke:none;" d="M24 130L25 131L24 130z"/>
<path style="fill:#b3e9e0; stroke:none;" d="M132 130L133 131L132 130z"/>
<path style="fill:#5ccdbb; stroke:none;" d="M25 131L26 132L25 131z"/>
<path style="fill:#b3e9e0; stroke:none;" d="M131 131L132 132L131 131z"/>
<path style="fill:#82d9cb; stroke:none;" d="M26 132L27 133L26 132z"/>
<path style="fill:#b3e9e0; stroke:none;" d="M130 132L131 133L130 132z"/>
<path style="fill:#82d9cb; stroke:none;" d="M27 133L28 134L27 133z"/>
<path style="fill:#b3e9e0; stroke:none;" d="M129 133L130 134L129 133z"/>
<path style="fill:#82d9cb; stroke:none;" d="M28 134L29 135L28 134z"/>
<path style="fill:#b3e9e0; stroke:none;" d="M128 134L129 135L128 134M29 135L30 136L29 135z"/>
<path style="fill:#5ccdbb; stroke:none;" d="M126 135L127 136L126 135z"/>
<path style="fill:#b3e9e0; stroke:none;" d="M30 136L31 137L30 136z"/>
<path style="fill:#82d9cb; stroke:none;" d="M125 136L126 137L125 136z"/>
<path style="fill:#b3e9e0; stroke:none;" d="M31 137L32 138L31 137z"/>
<path style="fill:#5ccdbb; stroke:none;" d="M32 137L33 138L32 137z"/>
<path style="fill:#82d9cb; stroke:none;" d="M124 137L125 138L124 137M33 138L34 139L33 138z"/>
<path style="fill:#b3e9e0; stroke:none;" d="M123 138L124 139L123 138M34 139L35 140L34 139z"/>
<path style="fill:#5ccdbb; stroke:none;" d="M121 139L122 140L121 139z"/>
<path style="fill:#b3e9e0; stroke:none;" d="M35 140L36 141L35 140z"/>
<path style="fill:#5ccdbb; stroke:none;" d="M36 140L37 141L36 140z"/>
<path style="fill:#b3e9e0; stroke:none;" d="M120 140L121 141L120 140M37 141L38 142L37 141z"/>
<path style="fill:#5ccdbb; stroke:none;" d="M118 141L119 142L118 141z"/>
<path style="fill:#b3e9e0; stroke:none;" d="M119 141L120 142L119 141z"/>
<path style="fill:#82d9cb; stroke:none;" d="M39 142L40 143L39 142z"/>
<path style="fill:#b3e9e0; stroke:none;" d="M117 142L118 143L117 142M40 143L41 144L40 143z"/>
<path style="fill:#5ccdbb; stroke:none;" d="M41 143L42 144L41 143z"/>
<path style="fill:#82d9cb; stroke:none;" d="M115 143L116 144L115 143z"/>
<path style="fill:#b3e9e0; stroke:none;" d="M42 144L43 145L42 144z"/>
<path style="fill:#5ccdbb; stroke:none;" d="M43 144L44 145L43 144z"/>
<path style="fill:#82d9cb; stroke:none;" d="M113 144L114 145L113 144z"/>
<path style="fill:#b3e9e0; stroke:none;" d="M114 144L115 145L114 144M44 145L45 146L44 145z"/>
<path style="fill:#5ccdbb; stroke:none;" d="M45 145L46 146L45 145z"/>
<path style="fill:#82d9cb; stroke:none;" d="M111 145L112 146L111 145z"/>
<path style="fill:#b3e9e0; stroke:none;" d="M112 145L113 146L112 145M46 146L47 147L46 146z"/>
<path style="fill:#5ccdbb; stroke:none;" d="M47 146L48 147L47 146z"/>
<path style="fill:#82d9cb; stroke:none;" d="M109 146L110 147L109 146z"/>
<path style="fill:#b3e9e0; stroke:none;" d="M110 146L111 147L110 146M48 147L49 148L48 147z"/>
<path style="fill:#82d9cb; stroke:none;" d="M49 147L50 148L49 147M107 147L108 148L107 147z"/>
<path style="fill:#b3e9e0; stroke:none;" d="M50 148L51 149L50 148z"/>
<path style="fill:#82d9cb; stroke:none;" d="M51 148L52 149L51 148z"/>
<path style="fill:#5ccdbb; stroke:none;" d="M52 148L53 149L52 148z"/>
<path style="fill:#82d9cb; stroke:none;" d="M104 148L105 149L104 148z"/>
<path style="fill:#b3e9e0; stroke:none;" d="M105 148L106 149L105 148M53 149L54 150L53 149z"/>
<path style="fill:#82d9cb; stroke:none;" d="M54 149L55 150L54 149z"/>
<path style="fill:#5ccdbb; stroke:none;" d="M101 149L102 150L101 149z"/>
<path style="fill:#b3e9e0; stroke:none;" d="M102 149L103 150L102 149M56 150L57 151L56 150z"/>
<path style="fill:#82d9cb; stroke:none;" d="M57 150L58 151L57 150z"/>
<path style="fill:#5ccdbb; stroke:none;" d="M58 150L59 151L58 150z"/>
<path style="fill:#82d9cb; stroke:none;" d="M98 150L99 151L98 150z"/>
<path style="fill:#b3e9e0; stroke:none;" d="M99 150L100 151L99 150M60 151L61 152L60 151z"/>
<path style="fill:#82d9cb; stroke:none;" d="M61 151L62 152L61 151z"/>
<path style="fill:#5ccdbb; stroke:none;" d="M62 151L63 152L62 151M93 151L94 152L93 151z"/>
<path style="fill:#82d9cb; stroke:none;" d="M94 151L95 152L94 151z"/>
<path style="fill:#b3e9e0; stroke:none;" d="M95.6667 151.333L96.3333 151.667L95.6667 151.333M64.6667 152.333L65.3333 152.667L64.6667 152.333z"/>
<path style="fill:#82d9cb; stroke:none;" d="M66.6667 152.333L67.3333 152.667L66.6667 152.333z"/>
<path style="fill:#5ccdbb; stroke:none;" d="M68 152L69 153L68 152M87.6667 152.333L88.3333 152.667L87.6667 152.333z"/>
<path style="fill:#82d9cb; stroke:none;" d="M89 152L90 153L89 152z"/>
<path style="fill:#b3e9e0; stroke:none;" d="M90.6667 152.333L91.3333 152.667L90.6667 152.333M72 153L72 154L85 154L72 153z"/>
</svg>
