<?xml version="1.0" standalone="yes"?>
<svg xmlns="http://www.w3.org/2000/svg" width="157" height="157">
<path style="fill:#ffffff; stroke:none;" d="M0 0L0 157L157 157L157 0L0 0z"/>
<path style="fill:#b5eae2; stroke:none;" d="M67 3L67 4L70 4L67 3z"/>
<path style="fill:#81dbcc; stroke:none;" d="M70.6667 3.33333L71.3333 3.66667L70.6667 3.33333z"/>
<path style="fill:#5dd0be; stroke:none;" d="M72 3L72 4L75 4L72 3z"/>
<path style="fill:#3ec7b3; stroke:none;" d="M75 3.42516C47.2514 6.94547 22.9399 19.4966 10.4892 46C-13.5595 97.1916 28.5477 159.77 86 152.714C121.622 148.339 149.345 121.02 152.83 85C156.889 43.0585 119.442 -2.21298 75 3.42516z"/>
<path style="fill:#5dd0be; stroke:none;" d="M82.6667 3.33333L83.3333 3.66667L82.6667 3.33333z"/>
<path style="fill:#81dbcc; stroke:none;" d="M84 3L84 4L87 4L84 3z"/>
<path style="fill:#b5eae2; stroke:none;" d="M87.6667 3.33333L88.3333 3.66667L87.6667 3.33333M62 4L63 5L62 4z"/>
<path style="fill:#81dbcc; stroke:none;" d="M63 4L64 5L63 4z"/>
<path style="fill:#5dd0be; stroke:none;" d="M64.6667 4.33333L65.3333 4.66667L64.6667 4.33333M91 4L92 5L91 4z"/>
<path style="fill:#81dbcc; stroke:none;" d="M92 4L93 5L92 4z"/>
<path style="fill:#b5eae2; stroke:none;" d="M93.6667 4.33333L94.3333 4.66667L93.6667 4.33333M58 5L59 6L58 5z"/>
<path style="fill:#81dbcc; stroke:none;" d="M59 5L60 6L59 5z"/>
<path style="fill:#5dd0be; stroke:none;" d="M60 5L61 6L60 5M96 5L97 6L96 5z"/>
<path style="fill:#b5eae2; stroke:none;" d="M97.6667 5.33333L98.3333 5.66667L97.6667 5.33333M54.6667 6.33333L55.3333 6.66667L54.6667 6.33333z"/>
<path style="fill:#5dd0be; stroke:none;" d="M56 6L57 7L56 6z"/>
<path style="fill:#81dbcc; stroke:none;" d="M100 6L101 7L100 6z"/>
<path style="fill:#b5eae2; stroke:none;" d="M101 6L102 7L101 6M52 7L53 8L52 7z"/>
<path style="fill:#5dd0be; stroke:none;" d="M53 7L54 8L53 7z"/>
<path style="fill:#81dbcc; stroke:none;" d="M103 7L104 8L103 7z"/>
<path style="fill:#b5eae2; stroke:none;" d="M104 7L105 8L104 7M49 8L50 9L49 8z"/>
<path style="fill:#81dbcc; stroke:none;" d="M50 8L51 9L50 8z"/>
<path style="fill:#5dd0be; stroke:none;" d="M105 8L106 9L105 8z"/>
<path style="fill:#b5eae2; stroke:none;" d="M106 8L107 9L106 8M47 9L48 10L47 9z"/>
<path style="fill:#5dd0be; stroke:none;" d="M48 9L49 10L48 9z"/>
<path style="fill:#81dbcc; stroke:none;" d="M108 9L109 10L108 9z"/>
<path style="fill:#b5eae2; stroke:none;" d="M109 9L110 10L109 9M45 10L46 11L45 10z"/>
<path style="fill:#81dbcc; stroke:none;" d="M110 10L111 11L110 10z"/>
<path style="fill:#b5eae2; stroke:none;" d="M111 10L112 11L111 10M43 11L44 12L43 11z"/>
<path style="fill:#81dbcc; stroke:none;" d="M112 11L113 12L112 11z"/>
<path style="fill:#b5eae2; stroke:none;" d="M113 11L114 12L113 11M41 12L42 13L41 12z"/>
<path style="fill:#5dd0be; stroke:none;" d="M42 12L43 13L42 12z"/>
<path style="fill:#81dbcc; stroke:none;" d="M114 12L115 13L114 12z"/>
<path style="fill:#b5eae2; stroke:none;" d="M115 12L116 13L115 12M39 13L40 14L39 13z"/>
<path style="fill:#5dd0be; stroke:none;" d="M40 13L41 14L40 13z"/>
<path style="fill:#81dbcc; stroke:none;" d="M116 13L117 14L116 13M38 14L39 15L38 14z"/>
<path style="fill:#5dd0be; stroke:none;" d="M117 14L118 15L117 14z"/>
<path style="fill:#b5eae2; stroke:none;" d="M118 14L119 15L118 14M36 15L37 16L36 15z"/>
<path style="fill:#5dd0be; stroke:none;" d="M37 15L38 16L37 15z"/>
<path style="fill:#81dbcc; stroke:none;" d="M119 15L120 16L119 15M35 16L36 17L35 16z"/>
<path style="fill:#b5eae2; stroke:none;" d="M121 16L122 17L121 16M33 17L34 18L33 17z"/>
<path style="fill:#5dd0be; stroke:none;" d="M34 17L35 18L34 17z"/>
<path style="fill:#81dbcc; stroke:none;" d="M122 17L123 18L122 17z"/>
<path style="fill:#b5eae2; stroke:none;" d="M32 18L33 19L32 18z"/>
<path style="fill:#5dd0be; stroke:none;" d="M123 18L124 19L123 18z"/>
<path style="fill:#81dbcc; stroke:none;" d="M31 19L32 20L31 19z"/>
<path style="fill:#b5eae2; stroke:none;" d="M125 19L126 20L125 19z"/>
<path style="fill:#5dd0be; stroke:none;" d="M30 20L31 21L30 20z"/>
<path style="fill:#b5eae2; stroke:none;" d="M126 20L127 21L126 20M28 21L29 22L28 21z"/>
<path style="fill:#5dd0be; stroke:none;" d="M29 21L30 22L29 21z"/>
<path style="fill:#81dbcc; stroke:none;" d="M127 21L128 22L127 21z"/>
<path style="fill:#b5eae2; stroke:none;" d="M27 22L28 23L27 22z"/>
<path style="fill:#81dbcc; stroke:none;" d="M128 22L129 23L128 22z"/>
<path style="fill:#b5eae2; stroke:none;" d="M26 23L27 24L26 23z"/>
<path style="fill:#81dbcc; stroke:none;" d="M129 23L130 24L129 23z"/>
<path style="fill:#b5eae2; stroke:none;" d="M25 24L26 25L25 24z"/>
<path style="fill:#5dd0be; stroke:none;" d="M130 24L131 25L130 24z"/>
<path style="fill:#b5eae2; stroke:none;" d="M24 25L25 26L24 25z"/>
<path style="fill:#5dd0be; stroke:none;" d="M131 25L132 26L131 25z"/>
<path style="fill:#b5eae2; stroke:none;" d="M23 26L24 27L23 26z"/>
<path style="fill:#81dbcc; stroke:none;" d="M132 26L133 27L132 26z"/>
<path style="fill:#b5eae2; stroke:none;" d="M22 27L23 28L22 27z"/>
<path style="fill:#81dbcc; stroke:none;" d="M133 27L134 28L133 27z"/>
<path style="fill:#b5eae2; stroke:none;" d="M21 28L22 29L21 28z"/>
<path style="fill:#81dbcc; stroke:none;" d="M134 28L135 29L134 28z"/>
<path style="fill:#5dd0be; stroke:none;" d="M21 29L22 30L21 29z"/>
<path style="fill:#81dbcc; stroke:none;" d="M135 29L136 30L135 29z"/>
<path style="fill:#5dd0be; stroke:none;" d="M20 30L21 31L20 30z"/>
<path style="fill:#b5eae2; stroke:none;" d="M136 30L137 31L136 30z"/>
<path style="fill:#81dbcc; stroke:none;" d="M19 31L20 32L19 31z"/>
<path style="fill:#b5eae2; stroke:none;" d="M137 31L138 32L137 31M18 32L19 33L18 32z"/>
<path style="fill:#5dd0be; stroke:none;" d="M137 32L138 33L137 32z"/>
<path style="fill:#b5eae2; stroke:none;" d="M17 33L18 34L17 33z"/>
<path style="fill:#81dbcc; stroke:none;" d="M138 33L139 34L138 33z"/>
<path style="fill:#5dd0be; stroke:none;" d="M17 34L18 35L17 34z"/>
<path style="fill:#b5eae2; stroke:none;" d="M139 34L140 35L139 34z"/>
<path style="fill:#81dbcc; stroke:none;" d="M16 35L17 36L16 35z"/>
<path style="fill:#b5eae2; stroke:none;" d="M140 35L141 36L140 35M15 36L16 37L15 36z"/>
<path style="fill:#5dd0be; stroke:none;" d="M140 36L141 37L140 36M15 37L16 38L15 37z"/>
<path style="fill:#b5eae2; stroke:none;" d="M141 37L142 38L141 37z"/>
<path style="fill:#81dbcc; stroke:none;" d="M14 38L15 39L14 38z"/>
<path style="fill:#b5eae2; stroke:none;" d="M13 39L14 40L13 39z"/>
<path style="fill:#81dbcc; stroke:none;" d="M142 39L143 40L142 39z"/>
<path style="fill:#5dd0be; stroke:none;" d="M13 40L14 41L13 40z"/>
<path style="fill:#b5eae2; stroke:none;" d="M143 40L144 41L143 40M12 41L13 42L12 41z"/>
<path style="fill:#5dd0be; stroke:none;" d="M143 41L144 42L143 41M12 42L13 43L12 42z"/>
<path style="fill:#b5eae2; stroke:none;" d="M144 42L145 43L144 42M11 43L12 44L11 43z"/>
<path style="fill:#5dd0be; stroke:none;" d="M144 43L145 44L144 43z"/>
<path style="fill:#b5eae2; stroke:none;" d="M145 44L146 45L145 44M10 45L11 46L10 45z"/>
<path style="fill:#5dd0be; stroke:none;" d="M145 45L146 46L145 45z"/>
<path style="fill:#b5eae2; stroke:none;" d="M146 46L147 47L146 46M9 47L10 48L9 47z"/>
<path style="fill:#5dd0be; stroke:none;" d="M146 47L147 48L146 47M9 48L10 49L9 48z"/>
<path style="fill:#b5eae2; stroke:none;" d="M147 48L148 49L147 48M8 49L9 50L8 49z"/>
<path style="fill:#81dbcc; stroke:none;" d="M147 49L148 50L147 49M8 50L9 51L8 50z"/>
<path style="fill:#b5eae2; stroke:none;" d="M148 50L149 51L148 50z"/>
<path style="fill:#81dbcc; stroke:none;" d="M148 51L149 52L148 51z"/>
<path style="fill:#b5eae2; stroke:none;" d="M7 52L8 53L7 52z"/>
<path style="fill:#81dbcc; stroke:none;" d="M63 52L64 53L63 52z"/>
<path style="fill:#5dd0be; stroke:none;" d="M64 52L65 53L64 52M91 52L92 53L91 52z"/>
<path style="fill:#81dbcc; stroke:none;" d="M92 52L93 53L92 52z"/>
<path style="fill:#5dd0be; stroke:none;" d="M148 52L149 53L148 52M7 53L8 54L7 53M57 53L58 54L57 53z"/>
<path style="fill:#81dbcc; stroke:none;" d="M58 53L59 54L58 53z"/>
<path style="fill:#b5eae2; stroke:none;" d="M59 53L60 54L59 53z"/>
<path style="fill:#ffffff; stroke:none;" d="M60 53.5301C34.3121 59.3448 57.3376 86.0313 67 94.4244C69.8456 96.8962 74.6958 103.726 79 102.654C82.6644 101.742 86.222 96.9887 89 94.5756C98.0938 86.6765 116.349 70.1894 103.606 57.3935C94.0819 47.8301 87.378 58.1312 78 58.1312C71.4555 58.1312 67.4971 51.8331 60 53.5301z"/>
<path style="fill:#b5eae2; stroke:none;" d="M67 53L68 54L67 53z"/>
<path style="fill:#81dbcc; stroke:none;" d="M68 53L69 54L68 53M87 53L88 54L87 53z"/>
<path style="fill:#b5eae2; stroke:none;" d="M88 53L89 54L88 53M96 53L97 54L96 53z"/>
<path style="fill:#81dbcc; stroke:none;" d="M97 53L98 54L97 53z"/>
<path style="fill:#5dd0be; stroke:none;" d="M98 53L99 54L98 53z"/>
<path style="fill:#b5eae2; stroke:none;" d="M149 53L150 54L149 53M6.33333 54.6667L6.66667 55.3333L6.33333 54.6667z"/>
<path style="fill:#81dbcc; stroke:none;" d="M55 54L56 55L55 54z"/>
<path style="fill:#b5eae2; stroke:none;" d="M56 54L57 55L56 54z"/>
<path style="fill:#81dbcc; stroke:none;" d="M70 54L71 55L70 54M85 54L86 55L85 54z"/>
<path style="fill:#b5eae2; stroke:none;" d="M99 54L100 55L99 54z"/>
<path style="fill:#81dbcc; stroke:none;" d="M100 54L101 55L100 54M149 54L150 55L149 54z"/>
<path style="fill:#5dd0be; stroke:none;" d="M53 55L54 56L53 55z"/>
<path style="fill:#b5eae2; stroke:none;" d="M54 55L55 56L54 55z"/>
<path style="fill:#81dbcc; stroke:none;" d="M72 55L73 56L72 55M83 55L84 56L83 55z"/>
<path style="fill:#b5eae2; stroke:none;" d="M101 55L102 56L101 55z"/>
<path style="fill:#5dd0be; stroke:none;" d="M102 55L103 56L102 55M6 56L7 57L6 56M52 56L53 57L52 56z"/>
<path style="fill:#b5eae2; stroke:none;" d="M73 56L74 57L73 56M82 56L83 57L82 56z"/>
<path style="fill:#5dd0be; stroke:none;" d="M103 56L104 57L103 56z"/>
<path style="fill:#b5eae2; stroke:none;" d="M150 56L151 57L150 56z"/>
<path style="fill:#5dd0be; stroke:none;" d="M51 57L52 58L51 57M75 57L76 58L75 57M80 57L81 58L80 57M104 57L105 58L104 57z"/>
<path style="fill:#81dbcc; stroke:none;" d="M150 57L151 58L150 57z"/>
<path style="fill:#b5eae2; stroke:none;" d="M5 58L6 59L5 58z"/>
<path style="fill:#5dd0be; stroke:none;" d="M50 58L51 59L50 58z"/>
<path style="fill:#81dbcc; stroke:none;" d="M76 58L77 59L76 58M79 58L80 59L79 58z"/>
<path style="fill:#5dd0be; stroke:none;" d="M105 58L106 59L105 58M150 58L151 59L150 58z"/>
<path style="fill:#81dbcc; stroke:none;" d="M5 59L6 60L5 59z"/>
<path style="fill:#b5eae2; stroke:none;" d="M50 59L51 60L50 59z"/>
<path style="fill:#81dbcc; stroke:none;" d="M77.6667 59.3333L78.3333 59.6667L77.6667 59.3333z"/>
<path style="fill:#b5eae2; stroke:none;" d="M105 59L106 60L105 59z"/>
<path style="fill:#5dd0be; stroke:none;" d="M5 60L6 61L5 60z"/>
<path style="fill:#81dbcc; stroke:none;" d="M49 60L50 61L49 60z"/>
<path style="fill:#5dd0be; stroke:none;" d="M106 60L107 61L106 60z"/>
<path style="fill:#b5eae2; stroke:none;" d="M151 60L152 61L151 60M49 61L50 62L49 61M106 61L107 62L106 61z"/>
<path style="fill:#81dbcc; stroke:none;" d="M151 61L152 62L151 61z"/>
<path style="fill:#b5eae2; stroke:none;" d="M4 62L5 63L4 62z"/>
<path style="fill:#5dd0be; stroke:none;" d="M48 62L49 63L48 62M151 62L152 63L151 62z"/>
<path style="fill:#81dbcc; stroke:none;" d="M4 63L5 64L4 63M48 63L49 64L48 63M107 63L108 64L107 63z"/>
<path style="fill:#5dd0be; stroke:none;" d="M4.33333 64.6667L4.66667 65.3333L4.33333 64.6667z"/>
<path style="fill:#b5eae2; stroke:none;" d="M48.3333 64.6667L48.6667 65.3333L48.3333 64.6667M107.333 64.6667L107.667 65.3333L107.333 64.6667M152.333 64.6667L152.667 65.3333L152.333 64.6667z"/>
<path style="fill:#81dbcc; stroke:none;" d="M152.333 66.6667L152.667 67.3333L152.333 66.6667z"/>
<path style="fill:#b5eae2; stroke:none;" d="M3 67L3 70L4 70L3 67z"/>
<path style="fill:#5dd0be; stroke:none;" d="M152 68L153 69L152 68z"/>
<path style="fill:#81dbcc; stroke:none;" d="M3.33333 70.6667L3.66667 71.3333L3.33333 70.6667z"/>
<path style="fill:#b5eae2; stroke:none;" d="M48.3333 70.6667L48.6667 71.3333L48.3333 70.6667M107 71L108 72L107 71z"/>
<path style="fill:#5dd0be; stroke:none;" d="M3 72L3 75L4 75L3 72z"/>
<path style="fill:#81dbcc; stroke:none;" d="M48 72L49 73L48 72M107 72L108 73L107 72z"/>
<path style="fill:#b5eae2; stroke:none;" d="M153 72L153 85L154 85L153 72z"/>
<path style="fill:#5dd0be; stroke:none;" d="M48 73L49 74L48 73M107 73L108 74L107 73z"/>
<path style="fill:#b5eae2; stroke:none;" d="M49 74L50 75L49 74M106 74L107 75L106 74z"/>
<path style="fill:#81dbcc; stroke:none;" d="M49 75L50 76L49 75M106 75L107 76L106 75z"/>
<path style="fill:#b5eae2; stroke:none;" d="M50 76L51 77L50 76M105 76L106 77L105 76z"/>
<path style="fill:#81dbcc; stroke:none;" d="M50 77L51 78L50 77z"/>
<path style="fill:#5dd0be; stroke:none;" d="M105 77L106 78L105 77z"/>
<path style="fill:#b5eae2; stroke:none;" d="M51 78L52 79L51 78M104 78L105 79L104 78M52 79L53 80L52 79M103 79L104 80L103 79z"/>
<path style="fill:#5dd0be; stroke:none;" d="M52 80L53 81L52 80M103 80L104 81L103 80z"/>
<path style="fill:#81dbcc; stroke:none;" d="M53 81L54 82L53 81M102 81L103 82L102 81z"/>
<path style="fill:#5dd0be; stroke:none;" d="M3.33333 82.6667L3.66667 83.3333L3.33333 82.6667z"/>
<path style="fill:#81dbcc; stroke:none;" d="M54 82L55 83L54 82M101 82L102 83L101 82M55 83L56 84L55 83M100 83L101 84L100 83M3 84L3 87L4 87L3 84M56 84L57 85L56 84M99 84L100 85L99 84M57 85L58 86L57 85M98 85L99 86L98 85M58 86L59 87L58 86M97 86L98 87L97 86z"/>
<path style="fill:#b5eae2; stroke:none;" d="M3.33333 87.6667L3.66667 88.3333L3.33333 87.6667z"/>
<path style="fill:#81dbcc; stroke:none;" d="M59 87L60 88L59 87M96 87L97 88L96 87z"/>
<path style="fill:#5dd0be; stroke:none;" d="M152.333 87.6667L152.667 88.3333L152.333 87.6667M60 88L61 89L60 88M95 88L96 89L95 88M61 89L62 90L61 89M94 89L95 90L94 89z"/>
<path style="fill:#81dbcc; stroke:none;" d="M152 89L153 90L152 89z"/>
<path style="fill:#5dd0be; stroke:none;" d="M62 90L63 91L62 90M93 90L94 91L93 90z"/>
<path style="fill:#b5eae2; stroke:none;" d="M152.333 90.6667L152.667 91.3333L152.333 90.6667z"/>
<path style="fill:#5dd0be; stroke:none;" d="M4 91L5 92L4 91M63 91L64 92L63 91M92 91L93 92L92 91z"/>
<path style="fill:#81dbcc; stroke:none;" d="M4 92L5 93L4 92z"/>
<path style="fill:#5dd0be; stroke:none;" d="M64 92L65 93L64 92M91 92L92 93L91 92z"/>
<path style="fill:#b5eae2; stroke:none;" d="M4.33333 93.6667L4.66667 94.3333L4.33333 93.6667z"/>
<path style="fill:#5dd0be; stroke:none;" d="M65 93L66 94L65 93M90 93L91 94L90 93M151 93L152 94L151 93z"/>
<path style="fill:#b5eae2; stroke:none;" d="M67 94L68 95L67 94z"/>
<path style="fill:#5dd0be; stroke:none;" d="M89 94L90 95L89 94z"/>
<path style="fill:#81dbcc; stroke:none;" d="M151 94L152 95L151 94z"/>
<path style="fill:#b5eae2; stroke:none;" d="M68 95L69 96L68 95M87 95L88 96L87 95M151.333 95.6667L151.667 96.3333L151.333 95.6667z"/>
<path style="fill:#5dd0be; stroke:none;" d="M5 96L6 97L5 96z"/>
<path style="fill:#b5eae2; stroke:none;" d="M69 96L70 97L69 96M86 96L87 97L86 96M5.33333 97.6667L5.66667 98.3333L5.33333 97.6667M70 97L71 98L70 97M85 97L86 98L85 97M71 98L72 99L71 98M84 98L85 99L84 98z"/>
<path style="fill:#81dbcc; stroke:none;" d="M150 98L151 99L150 98z"/>
<path style="fill:#b5eae2; stroke:none;" d="M72 99L73 100L72 99M83 99L84 100L83 99M150 99L151 100L150 99z"/>
<path style="fill:#81dbcc; stroke:none;" d="M6 100L7 101L6 100z"/>
<path style="fill:#b5eae2; stroke:none;" d="M73 100L74 101L73 100M82 100L83 101L82 100M6 101L7 102L6 101M74 101L75 102L74 101M81 101L82 102L81 101z"/>
<path style="fill:#5dd0be; stroke:none;" d="M149 101L150 102L149 101z"/>
<path style="fill:#b5eae2; stroke:none;" d="M75 102L76 103L75 102M80 102L81 103L80 102M149 102L150 103L149 102z"/>
<path style="fill:#81dbcc; stroke:none;" d="M7 103L8 104L7 103z"/>
<path style="fill:#b5eae2; stroke:none;" d="M76 103L77 104L76 103M79 103L80 104L79 103M7 104L8 105L7 104z"/>
<path style="fill:#5dd0be; stroke:none;" d="M77.6667 104.333L78.3333 104.667L77.6667 104.333M148 104L149 105L148 104M8 105L9 106L8 105z"/>
<path style="fill:#b5eae2; stroke:none;" d="M148 105L149 106L148 105M8 106L9 107L8 106z"/>
<path style="fill:#81dbcc; stroke:none;" d="M147 107L148 108L147 107M9 108L10 109L9 108z"/>
<path style="fill:#b5eae2; stroke:none;" d="M9 109L10 110L9 109z"/>
<path style="fill:#81dbcc; stroke:none;" d="M146 109L147 110L146 109M10 110L11 111L10 110z"/>
<path style="fill:#b5eae2; stroke:none;" d="M146 110L147 111L146 110M10 111L11 112L10 111z"/>
<path style="fill:#81dbcc; stroke:none;" d="M145 111L146 112L145 111M11 112L12 113L11 112z"/>
<path style="fill:#b5eae2; stroke:none;" d="M145 112L146 113L145 112M11 113L12 114L11 113z"/>
<path style="fill:#81dbcc; stroke:none;" d="M144 113L145 114L144 113M12 114L13 115L12 114z"/>
<path style="fill:#b5eae2; stroke:none;" d="M144 114L145 115L144 114M12 115L13 116L12 115z"/>
<path style="fill:#81dbcc; stroke:none;" d="M143 115L144 116L143 115M13 116L14 117L13 116z"/>
<path style="fill:#5dd0be; stroke:none;" d="M14 117L15 118L14 117z"/>
<path style="fill:#b5eae2; stroke:none;" d="M142 117L143 118L142 117M14 118L15 119L14 118z"/>
<path style="fill:#5dd0be; stroke:none;" d="M141 118L142 119L141 118z"/>
<path style="fill:#81dbcc; stroke:none;" d="M15 119L16 120L15 119z"/>
<path style="fill:#b5eae2; stroke:none;" d="M141 119L142 120L141 119M140 120L141 121L140 120M16 121L17 122L16 121z"/>
<path style="fill:#5dd0be; stroke:none;" d="M139 121L140 122L139 121z"/>
<path style="fill:#81dbcc; stroke:none;" d="M17 122L18 123L17 122z"/>
<path style="fill:#5dd0be; stroke:none;" d="M18 123L19 124L18 123z"/>
<path style="fill:#b5eae2; stroke:none;" d="M138 123L139 124L138 123z"/>
<path style="fill:#81dbcc; stroke:none;" d="M137 124L138 125L137 124z"/>
<path style="fill:#b5eae2; stroke:none;" d="M19 125L20 126L19 125z"/>
<path style="fill:#81dbcc; stroke:none;" d="M136 125L137 126L136 125z"/>
<path style="fill:#b5eae2; stroke:none;" d="M20 126L21 127L20 126z"/>
<path style="fill:#5dd0be; stroke:none;" d="M135 126L136 127L135 126z"/>
<path style="fill:#81dbcc; stroke:none;" d="M21 127L22 128L21 127M22 128L23 129L22 128z"/>
<path style="fill:#b5eae2; stroke:none;" d="M134 128L135 129L134 128z"/>
<path style="fill:#81dbcc; stroke:none;" d="M23 129L24 130L23 129z"/>
<path style="fill:#b5eae2; stroke:none;" d="M133 129L134 130L133 129z"/>
<path style="fill:#5dd0be; stroke:none;" d="M24 130L25 131L24 130z"/>
<path style="fill:#b5eae2; stroke:none;" d="M132 130L133 131L132 130z"/>
<path style="fill:#5dd0be; stroke:none;" d="M25 131L26 132L25 131z"/>
<path style="fill:#b5eae2; stroke:none;" d="M131 131L132 132L131 131z"/>
<path style="fill:#81dbcc; stroke:none;" d="M26 132L27 133L26 132z"/>
<path style="fill:#b5eae2; stroke:none;" d="M130 132L131 133L130 132z"/>
<path style="fill:#81dbcc; stroke:none;" d="M27 133L28 134L27 133z"/>
<path style="fill:#b5eae2; stroke:none;" d="M129 133L130 134L129 133z"/>
<path style="fill:#81dbcc; stroke:none;" d="M28 134L29 135L28 134z"/>
<path style="fill:#b5eae2; stroke:none;" d="M128 134L129 135L128 134z"/>
<path style="fill:#81dbcc; stroke:none;" d="M29 135L30 136L29 135z"/>
<path style="fill:#5dd0be; stroke:none;" d="M126 135L127 136L126 135z"/>
<path style="fill:#b5eae2; stroke:none;" d="M127 135L128 136L127 135M30 136L31 137L30 136z"/>
<path style="fill:#81dbcc; stroke:none;" d="M125 136L126 137L125 136z"/>
<path style="fill:#b5eae2; stroke:none;" d="M31 137L32 138L31 137z"/>
<path style="fill:#5dd0be; stroke:none;" d="M32 137L33 138L32 137z"/>
<path style="fill:#81dbcc; stroke:none;" d="M124 137L125 138L124 137M33 138L34 139L33 138z"/>
<path style="fill:#b5eae2; stroke:none;" d="M123 138L124 139L123 138M34 139L35 140L34 139z"/>
<path style="fill:#5dd0be; stroke:none;" d="M121 139L122 140L121 139z"/>
<path style="fill:#b5eae2; stroke:none;" d="M35 140L36 141L35 140z"/>
<path style="fill:#5dd0be; stroke:none;" d="M36 140L37 141L36 140z"/>
<path style="fill:#b5eae2; stroke:none;" d="M120 140L121 141L120 140M37 141L38 142L37 141z"/>
<path style="fill:#5dd0be; stroke:none;" d="M118 141L119 142L118 141z"/>
<path style="fill:#b5eae2; stroke:none;" d="M119 141L120 142L119 141z"/>
<path style="fill:#81dbcc; stroke:none;" d="M39 142L40 143L39 142z"/>
<path style="fill:#b5eae2; stroke:none;" d="M117 142L118 143L117 142M40 143L41 144L40 143z"/>
<path style="fill:#5dd0be; stroke:none;" d="M41 143L42 144L41 143z"/>
<path style="fill:#81dbcc; stroke:none;" d="M115 143L116 144L115 143z"/>
<path style="fill:#b5eae2; stroke:none;" d="M42 144L43 145L42 144z"/>
<path style="fill:#5dd0be; stroke:none;" d="M43 144L44 145L43 144z"/>
<path style="fill:#81dbcc; stroke:none;" d="M113 144L114 145L113 144z"/>
<path style="fill:#b5eae2; stroke:none;" d="M114 144L115 145L114 144M44 145L45 146L44 145z"/>
<path style="fill:#5dd0be; stroke:none;" d="M45 145L46 146L45 145z"/>
<path style="fill:#81dbcc; stroke:none;" d="M111 145L112 146L111 145z"/>
<path style="fill:#b5eae2; stroke:none;" d="M112 145L113 146L112 145M46 146L47 147L46 146z"/>
<path style="fill:#5dd0be; stroke:none;" d="M47 146L48 147L47 146z"/>
<path style="fill:#81dbcc; stroke:none;" d="M109 146L110 147L109 146z"/>
<path style="fill:#b5eae2; stroke:none;" d="M110 146L111 147L110 146M48 147L49 148L48 147z"/>
<path style="fill:#81dbcc; stroke:none;" d="M49 147L50 148L49 147M107 147L108 148L107 147z"/>
<path style="fill:#b5eae2; stroke:none;" d="M50 148L51 149L50 148z"/>
<path style="fill:#81dbcc; stroke:none;" d="M51 148L52 149L51 148z"/>
<path style="fill:#5dd0be; stroke:none;" d="M52 148L53 149L52 148z"/>
<path style="fill:#81dbcc; stroke:none;" d="M104 148L105 149L104 148z"/>
<path style="fill:#b5eae2; stroke:none;" d="M105 148L106 149L105 148M53 149L54 150L53 149z"/>
<path style="fill:#81dbcc; stroke:none;" d="M54 149L55 150L54 149z"/>
<path style="fill:#5dd0be; stroke:none;" d="M101 149L102 150L101 149z"/>
<path style="fill:#b5eae2; stroke:none;" d="M102 149L103 150L102 149M56 150L57 151L56 150z"/>
<path style="fill:#81dbcc; stroke:none;" d="M57 150L58 151L57 150z"/>
<path style="fill:#5dd0be; stroke:none;" d="M58 150L59 151L58 150z"/>
<path style="fill:#81dbcc; stroke:none;" d="M98 150L99 151L98 150z"/>
<path style="fill:#b5eae2; stroke:none;" d="M99 150L100 151L99 150M60 151L61 152L60 151z"/>
<path style="fill:#81dbcc; stroke:none;" d="M61 151L62 152L61 151z"/>
<path style="fill:#5dd0be; stroke:none;" d="M62 151L63 152L62 151M93 151L94 152L93 151z"/>
<path style="fill:#81dbcc; stroke:none;" d="M94 151L95 152L94 151z"/>
<path style="fill:#b5eae2; stroke:none;" d="M95.6667 151.333L96.3333 151.667L95.6667 151.333M64.6667 152.333L65.3333 152.667L64.6667 152.333z"/>
<path style="fill:#81dbcc; stroke:none;" d="M66.6667 152.333L67.3333 152.667L66.6667 152.333z"/>
<path style="fill:#5dd0be; stroke:none;" d="M68 152L69 153L68 152M87.6667 152.333L88.3333 152.667L87.6667 152.333z"/>
<path style="fill:#81dbcc; stroke:none;" d="M89 152L90 153L89 152z"/>
<path style="fill:#b5eae2; stroke:none;" d="M90.6667 152.333L91.3333 152.667L90.6667 152.333M72 153L72 154L85 154L72 153z"/>
</svg>
