<?xml version="1.0" standalone="yes"?>
<svg xmlns="http://www.w3.org/2000/svg" width="157" height="157">
<path style="fill:#ffffff; stroke:none;" d="M0 0L0 157L157 157L157 0L0 0z"/>
<path style="fill:#bdece4; stroke:none;" d="M67.6667 3.33333L68.3333 3.66667L67.6667 3.33333z"/>
<path style="fill:#8cdbce; stroke:none;" d="M69 3L69 4L72 4L69 3z"/>
<path style="fill:#59d0be; stroke:none;" d="M72 3L72 4L75 4L72 3z"/>
<path style="fill:#3dc5b1; stroke:none;" d="M75 3.42824C55.8513 5.72206 37.8266 11.5354 24.1705 26.0394C-21.8734 74.9421 17.154 161.169 86 152.714C121.622 148.339 149.345 121.02 152.83 85C156.905 42.8883 119.423 -1.89317 75 3.42824z"/>
<path style="fill:#59d0be; stroke:none;" d="M81 3L81 4L85 4L81 3z"/>
<path style="fill:#8cdbce; stroke:none;" d="M85.6667 3.33333L86.3333 3.66667L85.6667 3.33333z"/>
<path style="fill:#bdece4; stroke:none;" d="M87 3L87 4L90 4L87 3M62 4L63 5L62 4z"/>
<path style="fill:#8cdbce; stroke:none;" d="M63 4L64 5L63 4z"/>
<path style="fill:#59d0be; stroke:none;" d="M64.6667 4.33333L65.3333 4.66667L64.6667 4.33333M91 4L92 5L91 4z"/>
<path style="fill:#8cdbce; stroke:none;" d="M92.6667 4.33333L93.3333 4.66667L92.6667 4.33333z"/>
<path style="fill:#bdece4; stroke:none;" d="M94 4L95 5L94 4M58 5L59 6L58 5z"/>
<path style="fill:#8cdbce; stroke:none;" d="M59 5L60 6L59 5z"/>
<path style="fill:#59d0be; stroke:none;" d="M60 5L61 6L60 5M96 5L97 6L96 5z"/>
<path style="fill:#8cdbce; stroke:none;" d="M97 5L98 6L97 5z"/>
<path style="fill:#bdece4; stroke:none;" d="M98 5L99 6L98 5M54 6L55 7L54 6z"/>
<path style="fill:#8cdbce; stroke:none;" d="M55 6L56 7L55 6z"/>
<path style="fill:#59d0be; stroke:none;" d="M56 6L57 7L56 6M99 6L100 7L99 6z"/>
<path style="fill:#8cdbce; stroke:none;" d="M100 6L101 7L100 6z"/>
<path style="fill:#bdece4; stroke:none;" d="M101 6L102 7L101 6M52 7L53 8L52 7z"/>
<path style="fill:#59d0be; stroke:none;" d="M53 7L54 8L53 7z"/>
<path style="fill:#8cdbce; stroke:none;" d="M103 7L104 8L103 7z"/>
<path style="fill:#bdece4; stroke:none;" d="M104 7L105 8L104 7M49 8L50 9L49 8z"/>
<path style="fill:#8cdbce; stroke:none;" d="M50 8L51 9L50 8z"/>
<path style="fill:#59d0be; stroke:none;" d="M105 8L106 9L105 8z"/>
<path style="fill:#8cdbce; stroke:none;" d="M106 8L107 9L106 8z"/>
<path style="fill:#bdece4; stroke:none;" d="M47 9L48 10L47 9z"/>
<path style="fill:#59d0be; stroke:none;" d="M48 9L49 10L48 9z"/>
<path style="fill:#8cdbce; stroke:none;" d="M108 9L109 10L108 9z"/>
<path style="fill:#bdece4; stroke:none;" d="M109 9L110 10L109 9z"/>
<path style="fill:#8cdbce; stroke:none;" d="M45 10L46 11L45 10z"/>
<path style="fill:#59d0be; stroke:none;" d="M46 10L47 11L46 10z"/>
<path style="fill:#8cdbce; stroke:none;" d="M110 10L111 11L110 10z"/>
<path style="fill:#bdece4; stroke:none;" d="M111 10L112 11L111 10z"/>
<path style="fill:#8cdbce; stroke:none;" d="M43 11L44 12L43 11z"/>
<path style="fill:#59d0be; stroke:none;" d="M112 11L113 12L112 11z"/>
<path style="fill:#bdece4; stroke:none;" d="M113 11L114 12L113 11M41 12L42 13L41 12z"/>
<path style="fill:#59d0be; stroke:none;" d="M42 12L43 13L42 12z"/>
<path style="fill:#8cdbce; stroke:none;" d="M114 12L115 13L114 12z"/>
<path style="fill:#bdece4; stroke:none;" d="M115 12L116 13L115 12M39 13L40 14L39 13z"/>
<path style="fill:#59d0be; stroke:none;" d="M40 13L41 14L40 13z"/>
<path style="fill:#8cdbce; stroke:none;" d="M116 13L117 14L116 13M38 14L39 15L38 14z"/>
<path style="fill:#59d0be; stroke:none;" d="M117 14L118 15L117 14z"/>
<path style="fill:#bdece4; stroke:none;" d="M118 14L119 15L118 14M36 15L37 16L36 15z"/>
<path style="fill:#8cdbce; stroke:none;" d="M119 15L120 16L119 15M35 16L36 17L35 16z"/>
<path style="fill:#59d0be; stroke:none;" d="M120 16L121 17L120 16z"/>
<path style="fill:#bdece4; stroke:none;" d="M121 16L122 17L121 16M33 17L34 18L33 17z"/>
<path style="fill:#59d0be; stroke:none;" d="M34 17L35 18L34 17z"/>
<path style="fill:#8cdbce; stroke:none;" d="M122 17L123 18L122 17M32 18L33 19L32 18z"/>
<path style="fill:#59d0be; stroke:none;" d="M123 18L124 19L123 18z"/>
<path style="fill:#bdece4; stroke:none;" d="M124 18L125 19L124 18z"/>
<path style="fill:#8cdbce; stroke:none;" d="M31 19L32 20L31 19z"/>
<path style="fill:#bdece4; stroke:none;" d="M125 19L126 20L125 19z"/>
<path style="fill:#59d0be; stroke:none;" d="M30 20L31 21L30 20z"/>
<path style="fill:#bdece4; stroke:none;" d="M126 20L127 21L126 20M28 21L29 22L28 21z"/>
<path style="fill:#59d0be; stroke:none;" d="M29 21L30 22L29 21z"/>
<path style="fill:#8cdbce; stroke:none;" d="M127 21L128 22L127 21z"/>
<path style="fill:#bdece4; stroke:none;" d="M27 22L28 23L27 22z"/>
<path style="fill:#8cdbce; stroke:none;" d="M128 22L129 23L128 22z"/>
<path style="fill:#bdece4; stroke:none;" d="M26 23L27 24L26 23z"/>
<path style="fill:#8cdbce; stroke:none;" d="M129 23L130 24L129 23z"/>
<path style="fill:#bdece4; stroke:none;" d="M25 24L26 25L25 24z"/>
<path style="fill:#59d0be; stroke:none;" d="M130 24L131 25L130 24z"/>
<path style="fill:#bdece4; stroke:none;" d="M24 25L25 26L24 25z"/>
<path style="fill:#59d0be; stroke:none;" d="M131 25L132 26L131 25z"/>
<path style="fill:#bdece4; stroke:none;" d="M23 26L24 27L23 26z"/>
<path style="fill:#59d0be; stroke:none;" d="M132 26L133 27L132 26z"/>
<path style="fill:#bdece4; stroke:none;" d="M22 27L23 28L22 27z"/>
<path style="fill:#8cdbce; stroke:none;" d="M133 27L134 28L133 27z"/>
<path style="fill:#bdece4; stroke:none;" d="M21 28L22 29L21 28z"/>
<path style="fill:#8cdbce; stroke:none;" d="M134 28L135 29L134 28z"/>
<path style="fill:#59d0be; stroke:none;" d="M21 29L22 30L21 29z"/>
<path style="fill:#8cdbce; stroke:none;" d="M135 29L136 30L135 29z"/>
<path style="fill:#59d0be; stroke:none;" d="M20 30L21 31L20 30z"/>
<path style="fill:#bdece4; stroke:none;" d="M136 30L137 31L136 30z"/>
<path style="fill:#8cdbce; stroke:none;" d="M19 31L20 32L19 31z"/>
<path style="fill:#bdece4; stroke:none;" d="M137 31L138 32L137 31z"/>
<path style="fill:#8cdbce; stroke:none;" d="M18 32L19 33L18 32z"/>
<path style="fill:#59d0be; stroke:none;" d="M137 32L138 33L137 32z"/>
<path style="fill:#bdece4; stroke:none;" d="M17 33L18 34L17 33z"/>
<path style="fill:#8cdbce; stroke:none;" d="M138 33L139 34L138 33z"/>
<path style="fill:#59d0be; stroke:none;" d="M17 34L18 35L17 34z"/>
<path style="fill:#bdece4; stroke:none;" d="M139 34L140 35L139 34z"/>
<path style="fill:#8cdbce; stroke:none;" d="M16 35L17 36L16 35z"/>
<path style="fill:#bdece4; stroke:none;" d="M140 35L141 36L140 35M15 36L16 37L15 36z"/>
<path style="fill:#59d0be; stroke:none;" d="M140 36L141 37L140 36M15 37L16 38L15 37z"/>
<path style="fill:#8cdbce; stroke:none;" d="M141 37L142 38L141 37M14 38L15 39L14 38z"/>
<path style="fill:#bdece4; stroke:none;" d="M13 39L14 40L13 39z"/>
<path style="fill:#8cdbce; stroke:none;" d="M142 39L143 40L142 39z"/>
<path style="fill:#59d0be; stroke:none;" d="M13 40L14 41L13 40z"/>
<path style="fill:#bdece4; stroke:none;" d="M143 40L144 41L143 40M12 41L13 42L12 41z"/>
<path style="fill:#59d0be; stroke:none;" d="M143 41L144 42L143 41M12 42L13 43L12 42z"/>
<path style="fill:#bdece4; stroke:none;" d="M144 42L145 43L144 42z"/>
<path style="fill:#8cdbce; stroke:none;" d="M11 43L12 44L11 43z"/>
<path style="fill:#59d0be; stroke:none;" d="M144 43L145 44L144 43z"/>
<path style="fill:#8cdbce; stroke:none;" d="M145 44L146 45L145 44M10 45L11 46L10 45z"/>
<path style="fill:#59d0be; stroke:none;" d="M145 45L146 46L145 45M10 46L11 47L10 46z"/>
<path style="fill:#bdece4; stroke:none;" d="M146 46L147 47L146 46M9 47L10 48L9 47z"/>
<path style="fill:#59d0be; stroke:none;" d="M146 47L147 48L146 47M9 48L10 49L9 48z"/>
<path style="fill:#bdece4; stroke:none;" d="M147 48L148 49L147 48M8 49L9 50L8 49z"/>
<path style="fill:#59d0be; stroke:none;" d="M147 49L148 50L147 49z"/>
<path style="fill:#8cdbce; stroke:none;" d="M8 50L9 51L8 50z"/>
<path style="fill:#bdece4; stroke:none;" d="M148 50L149 51L148 50z"/>
<path style="fill:#8cdbce; stroke:none;" d="M148 51L149 52L148 51z"/>
<path style="fill:#bdece4; stroke:none;" d="M7 52L8 53L7 52z"/>
<path style="fill:#59d0be; stroke:none;" d="M148 52L149 53L148 52M7 53L8 54L7 53z"/>
<path style="fill:#bdece4; stroke:none;" d="M149 53L150 54L149 53M6 54L7 55L6 54z"/>
<path style="fill:#8cdbce; stroke:none;" d="M149 54L150 55L149 54M6 55L7 56L6 55z"/>
<path style="fill:#59d0be; stroke:none;" d="M149 55L150 56L149 55M6 56L7 57L6 56z"/>
<path style="fill:#bdece4; stroke:none;" d="M150 56L151 57L150 56z"/>
<path style="fill:#8cdbce; stroke:none;" d="M57 57L58 58L57 57z"/>
<path style="fill:#bdece4; stroke:none;" d="M58 57L58 58L98 58C87.4881 53.589 69.434 57 58 57z"/>
<path style="fill:#8cdbce; stroke:none;" d="M98 57L99 58L98 57M150 57L151 58L150 57z"/>
<path style="fill:#bdece4; stroke:none;" d="M5 58L6 59L5 58M56 58L57 59L56 58z"/>
<path style="fill:#ffffff; stroke:none;" d="M57.3179 59.0278C53.1133 61.8335 53.1022 85.8955 56.6034 89.3966C58.8587 91.6519 63.1141 90.9987 66 91C73.8814 91.0035 92.0608 94.3906 98.6821 89.9722C102.887 87.1665 102.898 63.1045 99.3966 59.6034C97.1413 57.3481 92.8859 58.0013 90 58C82.1186 57.9965 63.9392 54.6094 57.3179 59.0278z"/>
<path style="fill:#bdece4; stroke:none;" d="M99 58L101 60L99 58z"/>
<path style="fill:#59d0be; stroke:none;" d="M100 58L101 59L100 58M150 58L151 59L150 58z"/>
<path style="fill:#8cdbce; stroke:none;" d="M5 59L6 60L5 59M55 59L56 60L55 59z"/>
<path style="fill:#59d0be; stroke:none;" d="M5 60L6 61L5 60M54 60L55 61L54 60z"/>
<path style="fill:#8cdbce; stroke:none;" d="M101 60L102 61L101 60z"/>
<path style="fill:#bdece4; stroke:none;" d="M151 60L152 61L151 60z"/>
<path style="fill:#8cdbce; stroke:none;" d="M54 61L54 88L55 88L54 61M59 61L59 62L97 62L97 87L98 77L96.9722 62.6034L87 61L59 61z"/>
<path style="fill:#bdece4; stroke:none;" d="M101 61L101 87L102 87L101 61z"/>
<path style="fill:#8cdbce; stroke:none;" d="M151 61L152 62L151 61z"/>
<path style="fill:#bdece4; stroke:none;" d="M4 62L5 63L4 62M58 62L59.0278 86.3966L69 88L97 88L97 87L59 87L58 62z"/>
<path style="fill:#3dc5b1; stroke:none;" d="M59 62L59 87L97 87L97 62L59 62z"/>
<path style="fill:#59d0be; stroke:none;" d="M151 62L152 63L151 62z"/>
<path style="fill:#8cdbce; stroke:none;" d="M4 63L5 64L4 63z"/>
<path style="fill:#59d0be; stroke:none;" d="M4.33333 64.6667L4.66667 65.3333L4.33333 64.6667z"/>
<path style="fill:#bdece4; stroke:none;" d="M152.333 64.6667L152.667 65.3333L152.333 64.6667z"/>
<path style="fill:#8cdbce; stroke:none;" d="M152.333 66.6667L152.667 67.3333L152.333 66.6667z"/>
<path style="fill:#bdece4; stroke:none;" d="M3.33333 67.6667L3.66667 68.3333L3.33333 67.6667z"/>
<path style="fill:#59d0be; stroke:none;" d="M152 68L153 69L152 68z"/>
<path style="fill:#8cdbce; stroke:none;" d="M3 69L3 72L4 72L3 69z"/>
<path style="fill:#59d0be; stroke:none;" d="M3 72L3 75L4 75L3 72z"/>
<path style="fill:#bdece4; stroke:none;" d="M153 72L153 85L154 85L153 72z"/>
<path style="fill:#59d0be; stroke:none;" d="M3 81L3 85L4 85L3 81z"/>
<path style="fill:#8cdbce; stroke:none;" d="M3.33333 85.6667L3.66667 86.3333L3.33333 85.6667z"/>
<path style="fill:#bdece4; stroke:none;" d="M3 87L3 90L4 90L3 87z"/>
<path style="fill:#8cdbce; stroke:none;" d="M101 87L102 88L101 87z"/>
<path style="fill:#59d0be; stroke:none;" d="M152.333 87.6667L152.667 88.3333L152.333 87.6667M54 88L55 89L54 88M101 88L102 89L101 88z"/>
<path style="fill:#8cdbce; stroke:none;" d="M55 89L56 90L55 89M100 89L101 90L100 89M152 89L153 90L152 89M56 90L57 91L56 90M99 90L100 91L99 90z"/>
<path style="fill:#bdece4; stroke:none;" d="M152.333 90.6667L152.667 91.3333L152.333 90.6667z"/>
<path style="fill:#59d0be; stroke:none;" d="M4 91L5 92L4 91z"/>
<path style="fill:#8cdbce; stroke:none;" d="M58 91L58 92L98 92C87.4881 87.589 69.434 91 58 91z"/>
<path style="fill:#59d0be; stroke:none;" d="M98 91L99 92L98 91z"/>
<path style="fill:#8cdbce; stroke:none;" d="M4 92L5 93L4 92z"/>
<path style="fill:#bdece4; stroke:none;" d="M4.33333 93.6667L4.66667 94.3333L4.33333 93.6667z"/>
<path style="fill:#8cdbce; stroke:none;" d="M46 93L46 94L110 94L90 93L46 93z"/>
<path style="fill:#59d0be; stroke:none;" d="M110 93L110 98L111 98L110 93M151 93L152 94L151 93z"/>
<path style="fill:#ffffff; stroke:none;" d="M46 94C47.1111 100.717 53.3919 99.9978 59 100L97 100C102.733 99.9996 108.874 100.899 110 94L46 94z"/>
<path style="fill:#8cdbce; stroke:none;" d="M151 94L152 95L151 94z"/>
<path style="fill:#bdece4; stroke:none;" d="M75 95L75 96L82 97L75 95M151.333 95.6667L151.667 96.3333L151.333 95.6667z"/>
<path style="fill:#59d0be; stroke:none;" d="M5 96L6 97L5 96M75 96L75 97L81 97L75 96z"/>
<path style="fill:#8cdbce; stroke:none;" d="M5 97L6 98L5 97z"/>
<path style="fill:#bdece4; stroke:none;" d="M5 98L6 99L5 98z"/>
<path style="fill:#59d0be; stroke:none;" d="M46 98L47 99L46 98z"/>
<path style="fill:#8cdbce; stroke:none;" d="M109 98L110 99L109 98M150 98L151 99L150 98M48 99L49 100L48 99z"/>
<path style="fill:#bdece4; stroke:none;" d="M49 99L50 100L49 99M107 99L108 100L107 99z"/>
<path style="fill:#59d0be; stroke:none;" d="M108 99L109 100L108 99z"/>
<path style="fill:#bdece4; stroke:none;" d="M150 99L151 100L150 99z"/>
<path style="fill:#8cdbce; stroke:none;" d="M6 100L7 101L6 100z"/>
<path style="fill:#bdece4; stroke:none;" d="M6 101L7 102L6 101z"/>
<path style="fill:#59d0be; stroke:none;" d="M149 101L150 102L149 101z"/>
<path style="fill:#bdece4; stroke:none;" d="M149 102L150 103L149 102z"/>
<path style="fill:#8cdbce; stroke:none;" d="M7 103L8 104L7 103z"/>
<path style="fill:#bdece4; stroke:none;" d="M7 104L8 105L7 104z"/>
<path style="fill:#8cdbce; stroke:none;" d="M148 104L149 105L148 104z"/>
<path style="fill:#59d0be; stroke:none;" d="M8 105L9 106L8 105z"/>
<path style="fill:#bdece4; stroke:none;" d="M148 105L149 106L148 105z"/>
<path style="fill:#8cdbce; stroke:none;" d="M8 106L9 107L8 106M147 107L148 108L147 107M9 108L10 109L9 108z"/>
<path style="fill:#bdece4; stroke:none;" d="M9 109L10 110L9 109z"/>
<path style="fill:#8cdbce; stroke:none;" d="M146 109L147 110L146 109M10 110L11 111L10 110z"/>
<path style="fill:#bdece4; stroke:none;" d="M146 110L147 111L146 110M10 111L11 112L10 111z"/>
<path style="fill:#8cdbce; stroke:none;" d="M145 111L146 112L145 111z"/>
<path style="fill:#59d0be; stroke:none;" d="M11 112L12 113L11 112z"/>
<path style="fill:#bdece4; stroke:none;" d="M145 112L146 113L145 112M11 113L12 114L11 113z"/>
<path style="fill:#8cdbce; stroke:none;" d="M144 113L145 114L144 113M12 114L13 115L12 114z"/>
<path style="fill:#bdece4; stroke:none;" d="M144 114L145 115L144 114M12 115L13 116L12 115z"/>
<path style="fill:#8cdbce; stroke:none;" d="M143 115L144 116L143 115M13 116L14 117L13 116z"/>
<path style="fill:#59d0be; stroke:none;" d="M14 117L15 118L14 117z"/>
<path style="fill:#bdece4; stroke:none;" d="M142 117L143 118L142 117M14 118L15 119L14 118z"/>
<path style="fill:#59d0be; stroke:none;" d="M141 118L142 119L141 118z"/>
<path style="fill:#8cdbce; stroke:none;" d="M15 119L16 120L15 119z"/>
<path style="fill:#bdece4; stroke:none;" d="M141 119L142 120L141 119z"/>
<path style="fill:#59d0be; stroke:none;" d="M16 120L17 121L16 120z"/>
<path style="fill:#8cdbce; stroke:none;" d="M140 120L141 121L140 120z"/>
<path style="fill:#bdece4; stroke:none;" d="M16 121L17 122L16 121z"/>
<path style="fill:#59d0be; stroke:none;" d="M139 121L140 122L139 121z"/>
<path style="fill:#8cdbce; stroke:none;" d="M17 122L18 123L17 122z"/>
<path style="fill:#59d0be; stroke:none;" d="M18 123L19 124L18 123z"/>
<path style="fill:#bdece4; stroke:none;" d="M138 123L139 124L138 123M18 124L19 125L18 124z"/>
<path style="fill:#8cdbce; stroke:none;" d="M137 124L138 125L137 124z"/>
<path style="fill:#bdece4; stroke:none;" d="M19 125L20 126L19 125z"/>
<path style="fill:#8cdbce; stroke:none;" d="M136 125L137 126L136 125M20 126L21 127L20 126z"/>
<path style="fill:#59d0be; stroke:none;" d="M135 126L136 127L135 126z"/>
<path style="fill:#8cdbce; stroke:none;" d="M21 127L22 128L21 127z"/>
<path style="fill:#bdece4; stroke:none;" d="M135 127L136 128L135 127z"/>
<path style="fill:#8cdbce; stroke:none;" d="M22 128L23 129L22 128z"/>
<path style="fill:#bdece4; stroke:none;" d="M134 128L135 129L134 128z"/>
<path style="fill:#8cdbce; stroke:none;" d="M23 129L24 130L23 129z"/>
<path style="fill:#bdece4; stroke:none;" d="M133 129L134 130L133 129z"/>
<path style="fill:#59d0be; stroke:none;" d="M24 130L25 131L24 130z"/>
<path style="fill:#bdece4; stroke:none;" d="M132 130L133 131L132 130z"/>
<path style="fill:#59d0be; stroke:none;" d="M25 131L26 132L25 131z"/>
<path style="fill:#bdece4; stroke:none;" d="M131 131L132 132L131 131z"/>
<path style="fill:#59d0be; stroke:none;" d="M26 132L27 133L26 132z"/>
<path style="fill:#bdece4; stroke:none;" d="M130 132L131 133L130 132z"/>
<path style="fill:#8cdbce; stroke:none;" d="M27 133L28 134L27 133z"/>
<path style="fill:#bdece4; stroke:none;" d="M129 133L130 134L129 133z"/>
<path style="fill:#8cdbce; stroke:none;" d="M28 134L29 135L28 134z"/>
<path style="fill:#bdece4; stroke:none;" d="M128 134L129 135L128 134z"/>
<path style="fill:#8cdbce; stroke:none;" d="M29 135L30 136L29 135z"/>
<path style="fill:#59d0be; stroke:none;" d="M126 135L127 136L126 135z"/>
<path style="fill:#bdece4; stroke:none;" d="M127 135L128 136L127 135M30 136L31 137L30 136z"/>
<path style="fill:#8cdbce; stroke:none;" d="M125 136L126 137L125 136z"/>
<path style="fill:#bdece4; stroke:none;" d="M31 137L32 138L31 137z"/>
<path style="fill:#59d0be; stroke:none;" d="M32 137L33 138L32 137z"/>
<path style="fill:#8cdbce; stroke:none;" d="M124 137L125 138L124 137M33 138L34 139L33 138z"/>
<path style="fill:#bdece4; stroke:none;" d="M123 138L124 139L123 138M34 139L35 140L34 139z"/>
<path style="fill:#59d0be; stroke:none;" d="M121 139L122 140L121 139z"/>
<path style="fill:#bdece4; stroke:none;" d="M35 140L36 141L35 140z"/>
<path style="fill:#59d0be; stroke:none;" d="M36 140L37 141L36 140z"/>
<path style="fill:#8cdbce; stroke:none;" d="M120 140L121 141L120 140M37 141L38 142L37 141z"/>
<path style="fill:#59d0be; stroke:none;" d="M118 141L119 142L118 141z"/>
<path style="fill:#bdece4; stroke:none;" d="M119 141L120 142L119 141z"/>
<path style="fill:#8cdbce; stroke:none;" d="M39 142L40 143L39 142z"/>
<path style="fill:#bdece4; stroke:none;" d="M117 142L118 143L117 142M40 143L41 144L40 143z"/>
<path style="fill:#59d0be; stroke:none;" d="M41 143L42 144L41 143z"/>
<path style="fill:#8cdbce; stroke:none;" d="M115 143L116 144L115 143z"/>
<path style="fill:#bdece4; stroke:none;" d="M42 144L43 145L42 144z"/>
<path style="fill:#59d0be; stroke:none;" d="M43 144L44 145L43 144z"/>
<path style="fill:#8cdbce; stroke:none;" d="M113 144L114 145L113 144z"/>
<path style="fill:#bdece4; stroke:none;" d="M114 144L115 145L114 144z"/>
<path style="fill:#8cdbce; stroke:none;" d="M44 145L45 146L44 145z"/>
<path style="fill:#59d0be; stroke:none;" d="M45 145L46 146L45 145z"/>
<path style="fill:#8cdbce; stroke:none;" d="M111 145L112 146L111 145z"/>
<path style="fill:#bdece4; stroke:none;" d="M112 145L113 146L112 145M46 146L47 147L46 146z"/>
<path style="fill:#59d0be; stroke:none;" d="M47 146L48 147L47 146z"/>
<path style="fill:#8cdbce; stroke:none;" d="M109 146L110 147L109 146z"/>
<path style="fill:#bdece4; stroke:none;" d="M110 146L111 147L110 146M48 147L49 148L48 147z"/>
<path style="fill:#59d0be; stroke:none;" d="M49 147L50 148L49 147z"/>
<path style="fill:#8cdbce; stroke:none;" d="M107 147L108 148L107 147z"/>
<path style="fill:#bdece4; stroke:none;" d="M50 148L51 149L50 148z"/>
<path style="fill:#8cdbce; stroke:none;" d="M51 148L52 149L51 148z"/>
<path style="fill:#59d0be; stroke:none;" d="M52 148L53 149L52 148M104 148L105 149L104 148z"/>
<path style="fill:#bdece4; stroke:none;" d="M105 148L106 149L105 148M53 149L54 150L53 149z"/>
<path style="fill:#8cdbce; stroke:none;" d="M54 149L55 150L54 149z"/>
<path style="fill:#59d0be; stroke:none;" d="M55 149L56 150L55 149M101 149L102 150L101 149z"/>
<path style="fill:#8cdbce; stroke:none;" d="M102 149L103 150L102 149z"/>
<path style="fill:#bdece4; stroke:none;" d="M56 150L57 151L56 150z"/>
<path style="fill:#8cdbce; stroke:none;" d="M57 150L58 151L57 150z"/>
<path style="fill:#59d0be; stroke:none;" d="M58 150L59 151L58 150z"/>
<path style="fill:#8cdbce; stroke:none;" d="M98 150L99 151L98 150z"/>
<path style="fill:#bdece4; stroke:none;" d="M99 150L100 151L99 150M60 151L61 152L60 151z"/>
<path style="fill:#8cdbce; stroke:none;" d="M61 151L62 152L61 151z"/>
<path style="fill:#59d0be; stroke:none;" d="M62 151L63 152L62 151M93 151L94 152L93 151z"/>
<path style="fill:#8cdbce; stroke:none;" d="M94 151L95 152L94 151z"/>
<path style="fill:#bdece4; stroke:none;" d="M95.6667 151.333L96.3333 151.667L95.6667 151.333M64.6667 152.333L65.3333 152.667L64.6667 152.333z"/>
<path style="fill:#8cdbce; stroke:none;" d="M66.6667 152.333L67.3333 152.667L66.6667 152.333z"/>
<path style="fill:#59d0be; stroke:none;" d="M68 152L69 153L68 152M87.6667 152.333L88.3333 152.667L87.6667 152.333z"/>
<path style="fill:#8cdbce; stroke:none;" d="M89 152L90 153L89 152z"/>
<path style="fill:#bdece4; stroke:none;" d="M90.6667 152.333L91.3333 152.667L90.6667 152.333M72 153L72 154L85 154L72 153z"/>
</svg>
